#N canvas 206 274 315 226 10;
#X obj 5 23 inlet;
#X obj 6 186 outlet;
#X obj 6 118 map_min-max;
#X text 53 43 input;
#X text 35 85 low;
#X text 77 86 high;
#X text 137 85 low;
#X text 179 86 high;
#X text 151 42 output;
#X obj 107 15 loadbang;
#X msg 36 67 10;
#X msg 78 66 355;
#X msg 137 65 0;
#X msg 180 65 1;
#X connect 0 0 2 0;
#X connect 2 0 1 0;
#X connect 9 0 13 0;
#X connect 9 0 12 0;
#X connect 9 0 11 0;
#X connect 9 0 10 0;
#X connect 10 0 2 1;
#X connect 11 0 2 2;
#X connect 12 0 2 3;
#X connect 13 0 2 4;
