#N canvas 286 140 1146 647 10;
#X obj 7 37 inlet;
#X obj 53 37 inlet;
#X obj 105 37 inlet;
#X obj 148 37 inlet;
#X obj 192 37 inlet;
#X obj 237 38 inlet;
#X obj 328 38 inlet;
#X obj 369 38 inlet;
#X obj 418 38 inlet;
#X obj 464 38 inlet;
#X obj 632 38 inlet;
#X obj 674 38 inlet;
#X obj 714 37 inlet;
#X obj 849 14 inlet;
#X obj 936 29 inlet;
#X obj 976 28 inlet;
#X text 121 7 distance;
#X text 386 14 accel;
#X text 667 6 ypr;
#X text 940 4 sound;
#X obj 939 392 cal.sensitivity;
#X obj 8 147 outlet;
#X obj 329 163 outlet;
#X obj 542 537 outlet;
#X obj 592 537 outlet;
#X obj 639 536 outlet;
#X obj 277 475 outlet;
#X obj 675 132 outlet;
#X obj 376 474 outlet;
#X obj 848 100 outlet;
#X obj 605 137 outlet;
#X obj 736 287 outlet;
#X obj 786 289 outlet;
#X obj 895 221 outlet;
#X obj 988 256 outlet;
#X obj 1035 255 outlet;
#X obj 284 321 a.mapping.module;
#X obj 327 354 a.mapping.module;
#X obj 372 385 a.mapping.module;
#X obj 621 435 a.mapping.module;
#X obj 580 459 a.mapping.module;
#X obj 540 484 a.mapping.module;
#X obj 961 66 a.mapping.module;
#X obj 938 102 a.mapping.module;
#X obj 983 133 a.mapping.module;
#N canvas 0 22 450 300 mapDistance1 0;
#X obj 15 33 inlet;
#X obj 16 196 outlet;
#X obj 16 128 map_min-max;
#X text 63 53 input;
#X text 45 95 low;
#X text 87 96 high;
#X text 147 95 low;
#X text 189 96 high;
#X text 161 52 output;
#X obj 117 25 loadbang;
#X msg 46 77 10;
#X msg 88 76 355;
#X msg 147 75 0;
#X msg 190 75 1;
#X connect 0 0 2 0;
#X connect 2 0 1 0;
#X connect 9 0 13 0;
#X connect 9 0 12 0;
#X connect 9 0 11 0;
#X connect 9 0 10 0;
#X connect 10 0 2 1;
#X connect 11 0 2 2;
#X connect 12 0 2 3;
#X connect 13 0 2 4;
#X restore 8 69 pd mapDistance1;
#N canvas 255 165 450 300 mapDistance1 0;
#X obj 15 33 inlet;
#X obj 16 196 outlet;
#X obj 16 128 map_min-max;
#X text 63 53 input;
#X text 45 95 low;
#X text 87 96 high;
#X text 147 95 low;
#X text 189 96 high;
#X text 161 52 output;
#X obj 117 25 loadbang;
#X msg 147 75 0;
#X msg 190 75 1;
#X msg 46 77 5;
#X msg 88 76 310;
#X connect 0 0 2 0;
#X connect 2 0 1 0;
#X connect 9 0 11 0;
#X connect 9 0 10 0;
#X connect 9 0 13 0;
#X connect 9 0 12 0;
#X connect 10 0 2 3;
#X connect 11 0 2 4;
#X connect 12 0 2 1;
#X connect 13 0 2 2;
#X restore 54 93 pd mapDistance1;
#N canvas 0 22 450 300 mapDistance3 0;
#X obj 15 33 inlet;
#X obj 16 196 outlet;
#X obj 16 128 map_min-max;
#X text 63 53 input;
#X text 45 95 low;
#X text 87 96 high;
#X text 147 95 low;
#X text 189 96 high;
#X text 161 52 output;
#X obj 117 25 loadbang;
#X msg 147 75 0;
#X msg 190 75 1;
#X msg 46 77 5;
#X msg 88 76 290;
#X connect 0 0 2 0;
#X connect 2 0 1 0;
#X connect 9 0 11 0;
#X connect 9 0 10 0;
#X connect 9 0 13 0;
#X connect 9 0 12 0;
#X connect 10 0 2 3;
#X connect 11 0 2 4;
#X connect 12 0 2 1;
#X connect 13 0 2 2;
#X restore 105 125 pd mapDistance3;
#N canvas 0 22 450 300 mapDistance4 0;
#X obj 15 33 inlet;
#X obj 16 196 outlet;
#X obj 16 128 map_min-max;
#X text 63 53 input;
#X text 45 95 low;
#X text 87 96 high;
#X text 147 95 low;
#X text 189 96 high;
#X text 161 52 output;
#X obj 117 25 loadbang;
#X msg 147 75 0;
#X msg 190 75 1;
#X msg 46 77 20;
#X msg 88 76 390;
#X connect 0 0 2 0;
#X connect 2 0 1 0;
#X connect 9 0 11 0;
#X connect 9 0 10 0;
#X connect 9 0 13 0;
#X connect 9 0 12 0;
#X connect 10 0 2 3;
#X connect 11 0 2 4;
#X connect 12 0 2 1;
#X connect 13 0 2 2;
#X restore 150 147 pd mapDistance4;
#N canvas 0 22 450 300 mapDistance5 0;
#X obj 15 33 inlet;
#X obj 16 196 outlet;
#X obj 16 128 map_min-max;
#X text 63 53 input;
#X text 45 95 low;
#X text 87 96 high;
#X text 147 95 low;
#X text 189 96 high;
#X text 161 52 output;
#X obj 117 25 loadbang;
#X msg 147 75 0;
#X msg 190 75 1;
#X msg 88 76 316;
#X msg 46 77 14;
#X connect 0 0 2 0;
#X connect 2 0 1 0;
#X connect 9 0 11 0;
#X connect 9 0 10 0;
#X connect 9 0 12 0;
#X connect 9 0 13 0;
#X connect 10 0 2 3;
#X connect 11 0 2 4;
#X connect 12 0 2 2;
#X connect 13 0 2 1;
#X restore 192 185 pd mapDistance5;
#N canvas 0 22 450 300 mapDistance6 0;
#X obj 15 33 inlet;
#X obj 16 196 outlet;
#X obj 16 128 map_min-max;
#X text 63 53 input;
#X text 45 95 low;
#X text 87 96 high;
#X text 147 95 low;
#X text 189 96 high;
#X text 161 52 output;
#X obj 117 25 loadbang;
#X msg 147 75 0;
#X msg 190 75 1;
#X msg 46 77 5;
#X msg 88 76 305;
#X connect 0 0 2 0;
#X connect 2 0 1 0;
#X connect 9 0 11 0;
#X connect 9 0 10 0;
#X connect 9 0 13 0;
#X connect 9 0 12 0;
#X connect 10 0 2 3;
#X connect 11 0 2 4;
#X connect 12 0 2 1;
#X connect 13 0 2 2;
#X restore 238 208 pd mapDistance6;
#N canvas 0 22 154 159 vector_xy 0;
#X obj 17 79 vector;
#X floatatom 17 41 5 0 0 0 x - -;
#X floatatom 74 41 5 0 0 1 y - -;
#X obj 74 62 t b f;
#X obj 17 104 outlet;
#X obj 17 16 inlet;
#X obj 74 16 inlet;
#X connect 0 0 4 0;
#X connect 1 0 0 0;
#X connect 2 0 3 0;
#X connect 3 0 1 0;
#X connect 3 1 0 1;
#X connect 5 0 1 0;
#X connect 6 0 2 0;
#X restore 329 111 pd vector_xy;
#N canvas 0 22 450 300 mapPulse 0;
#X obj 15 33 inlet;
#X obj 16 196 outlet;
#X obj 16 128 map_min-max;
#X text 63 53 input;
#X text 45 95 low;
#X text 87 96 high;
#X text 147 95 low;
#X text 189 96 high;
#X text 161 52 output;
#X obj 117 25 loadbang;
#X msg 46 77 0;
#X msg 147 75 0;
#X msg 190 75 250;
#X msg 88 76 1;
#X connect 0 0 2 0;
#X connect 2 0 1 0;
#X connect 9 0 12 0;
#X connect 9 0 11 0;
#X connect 9 0 13 0;
#X connect 9 0 10 0;
#X connect 10 0 2 1;
#X connect 11 0 2 3;
#X connect 12 0 2 4;
#X connect 13 0 2 2;
#X restore 329 137 pd mapPulse;
#N canvas 0 22 154 159 vector_xy 0;
#X obj 17 79 vector;
#X floatatom 17 41 5 0 0 0 x - -;
#X floatatom 74 41 5 0 0 1 y - -;
#X obj 74 62 t b f;
#X obj 17 104 outlet;
#X obj 17 16 inlet;
#X obj 74 16 inlet;
#X connect 0 0 4 0;
#X connect 1 0 0 0;
#X connect 2 0 3 0;
#X connect 3 0 1 0;
#X connect 3 1 0 1;
#X connect 5 0 1 0;
#X connect 6 0 2 0;
#X restore 8 122 pd vector_xy;
#X obj 105 198 outlet;
#N canvas 0 22 154 159 vector_xy 0;
#X obj 17 79 vector;
#X floatatom 17 41 5 0 0 0 x - -;
#X floatatom 74 41 5 0 0 1 y - -;
#X obj 74 62 t b f;
#X obj 17 104 outlet;
#X obj 17 16 inlet;
#X obj 74 16 inlet;
#X connect 0 0 4 0;
#X connect 1 0 0 0;
#X connect 2 0 3 0;
#X connect 3 0 1 0;
#X connect 3 1 0 1;
#X connect 5 0 1 0;
#X connect 6 0 2 0;
#X restore 105 174 pd vector_xy;
#X obj 192 257 outlet;
#N canvas 0 22 154 159 vector_xy 0;
#X obj 17 79 vector;
#X floatatom 17 41 5 0 0 0 x - -;
#X floatatom 74 41 5 0 0 1 y - -;
#X obj 74 62 t b f;
#X obj 17 104 outlet;
#X obj 17 16 inlet;
#X obj 74 16 inlet;
#X connect 0 0 4 0;
#X connect 1 0 0 0;
#X connect 2 0 3 0;
#X connect 3 0 1 0;
#X connect 3 1 0 1;
#X connect 5 0 1 0;
#X connect 6 0 2 0;
#X restore 192 232 pd vector_xy;
#N canvas 0 22 195 202 if_one_open_another 0;
#X obj 36 133 spigot;
#X obj 84 135 tgl 15 0 empty empty empty 17 7 0 10 -262144 -1 -1 0
1;
#X obj 85 81 sel 0 1;
#X msg 85 107 0;
#X msg 121 107 1;
#X obj 36 103 inlet;
#X obj 36 160 outlet;
#X obj 85 32 inlet;
#X text 26 82 magnitude;
#X text 79 14 accel z;
#X obj 85 56 > 40;
#X connect 0 0 6 0;
#X connect 1 0 0 1;
#X connect 2 0 3 0;
#X connect 2 1 4 0;
#X connect 3 0 1 0;
#X connect 4 0 1 0;
#X connect 5 0 0 0;
#X connect 7 0 10 0;
#X connect 10 0 2 0;
#X restore 419 92 pd if_one_open_another;
#N canvas 0 22 450 300 mapVibration 0;
#X obj 15 33 inlet;
#X obj 16 196 outlet;
#X obj 16 128 map_min-max;
#X text 63 53 input;
#X text 45 95 low;
#X text 87 96 high;
#X text 147 95 low;
#X text 189 96 high;
#X text 161 52 output;
#X obj 117 25 loadbang;
#X msg 46 77 0;
#X msg 88 76 102;
#X msg 190 75 1.5;
#X msg 147 75 0;
#X connect 0 0 2 0;
#X connect 2 0 1 0;
#X connect 9 0 12 0;
#X connect 9 0 13 0;
#X connect 9 0 11 0;
#X connect 9 0 10 0;
#X connect 10 0 2 1;
#X connect 11 0 2 2;
#X connect 12 0 2 4;
#X connect 13 0 2 3;
#X restore 419 68 pd mapVibration;
#X obj 419 119 outlet;
#X text 470 15 mag;
#N canvas 0 22 450 300 accelX 0;
#X obj 15 33 inlet;
#X obj 16 196 outlet;
#X obj 16 128 map_min-max;
#X text 63 53 input;
#X text 45 95 low;
#X text 87 96 high;
#X text 147 95 low;
#X text 189 96 high;
#X text 161 52 output;
#X obj 117 25 loadbang;
#X msg 46 77 0;
#X msg 88 76 100;
#X msg 147 75 0;
#X msg 190 75 1;
#X connect 0 0 2 0;
#X connect 2 0 1 0;
#X connect 9 0 13 0;
#X connect 9 0 12 0;
#X connect 9 0 11 0;
#X connect 9 0 10 0;
#X connect 10 0 2 1;
#X connect 11 0 2 2;
#X connect 12 0 2 3;
#X connect 13 0 2 4;
#X restore 328 61 pd accelX;
#N canvas 0 22 450 300 accelY 0;
#X obj 15 33 inlet;
#X obj 16 196 outlet;
#X obj 16 128 map_min-max;
#X text 63 53 input;
#X text 45 95 low;
#X text 87 96 high;
#X text 147 95 low;
#X text 189 96 high;
#X text 161 52 output;
#X obj 117 25 loadbang;
#X msg 46 77 0;
#X msg 88 76 100;
#X msg 147 75 0;
#X msg 190 75 1;
#X connect 0 0 2 0;
#X connect 2 0 1 0;
#X connect 9 0 13 0;
#X connect 9 0 12 0;
#X connect 9 0 11 0;
#X connect 9 0 10 0;
#X connect 10 0 2 1;
#X connect 11 0 2 2;
#X connect 12 0 2 3;
#X connect 13 0 2 4;
#X restore 340 84 pd accelY;
#X obj 848 79 bng 15 250 50 0 empty empty empty 17 7 0 10 -262144 -1
-1;
#N canvas 0 22 450 300 mapReverb 0;
#X obj 15 33 inlet;
#X obj 16 196 outlet;
#X obj 16 128 map_min-max;
#X text 63 53 input;
#X text 45 95 low;
#X text 87 96 high;
#X text 147 95 low;
#X text 189 96 high;
#X text 161 52 output;
#X obj 117 25 loadbang;
#X msg 46 77 -70;
#X msg 88 76 100;
#X msg 147 75 0;
#X msg 190 75 1;
#X connect 0 0 2 0;
#X connect 2 0 1 0;
#X connect 9 0 13 0;
#X connect 9 0 12 0;
#X connect 9 0 11 0;
#X connect 9 0 10 0;
#X connect 10 0 2 1;
#X connect 11 0 2 2;
#X connect 12 0 2 3;
#X connect 13 0 2 4;
#X restore 675 109 pd mapReverb;
#N canvas 0 22 250 285 freeze 0;
#X obj 40 63 max 10;
#X obj 40 86 sel 10;
#X msg 40 110 0;
#X obj 40 133 change;
#X obj 89 62 max 10;
#X obj 89 85 sel 10;
#X msg 89 109 0;
#X obj 134 62 max 10;
#X obj 134 85 sel 10;
#X obj 40 177 change;
#X msg 175 111 1;
#X msg 135 111 0;
#X obj 40 199 tgl 15 0 empty empty empty 17 7 0 10 -262144 -1 -1 0
1;
#X msg 40 155 \$1;
#X text 63 200 sel 0 on sel 1 off;
#X text 48 17 y;
#X text 100 17 p;
#X text 147 18 r;
#X obj 40 223 outlet;
#X obj 39 36 inlet;
#X obj 88 34 inlet;
#X obj 137 34 inlet;
#X connect 0 0 1 0;
#X connect 1 0 2 0;
#X connect 1 1 10 0;
#X connect 2 0 3 0;
#X connect 3 0 13 0;
#X connect 4 0 5 0;
#X connect 5 0 6 0;
#X connect 5 1 10 0;
#X connect 6 0 3 0;
#X connect 7 0 8 0;
#X connect 8 0 11 0;
#X connect 8 1 10 0;
#X connect 9 0 12 0;
#X connect 10 0 3 0;
#X connect 11 0 3 0;
#X connect 12 0 18 0;
#X connect 13 0 9 0;
#X connect 19 0 0 0;
#X connect 20 0 4 0;
#X connect 21 0 7 0;
#X restore 605 109 pd freeze;
#X text 845 116 mic env;
#X obj 895 197 > 5;
#X text 822 195 overdrive volume;
#X connect 0 0 45 0;
#X connect 1 0 46 0;
#X connect 2 0 47 0;
#X connect 3 0 48 0;
#X connect 4 0 49 0;
#X connect 5 0 50 0;
#X connect 6 0 62 0;
#X connect 7 0 63 0;
#X connect 8 0 58 1;
#X connect 9 0 59 0;
#X connect 10 0 66 0;
#X connect 11 0 65 0;
#X connect 11 0 66 1;
#X connect 12 0 66 2;
#X connect 13 0 64 0;
#X connect 14 0 43 0;
#X connect 14 0 68 0;
#X connect 15 0 44 0;
#X connect 36 0 26 0;
#X connect 38 0 28 0;
#X connect 39 0 25 0;
#X connect 40 0 24 0;
#X connect 41 0 23 0;
#X connect 43 0 34 0;
#X connect 44 0 35 0;
#X connect 45 0 53 0;
#X connect 46 0 53 1;
#X connect 47 0 55 0;
#X connect 48 0 55 1;
#X connect 49 0 57 0;
#X connect 50 0 57 1;
#X connect 51 0 52 0;
#X connect 52 0 22 0;
#X connect 53 0 21 0;
#X connect 55 0 54 0;
#X connect 57 0 56 0;
#X connect 58 0 60 0;
#X connect 59 0 58 0;
#X connect 62 0 51 0;
#X connect 63 0 51 1;
#X connect 64 0 29 0;
#X connect 65 0 27 0;
#X connect 66 0 30 0;
#X connect 68 0 33 0;
