#N canvas 200 184 1144 497 10;
#X obj -95 41 inlet;
#X obj -49 41 inlet;
#X obj 3 41 inlet;
#X obj 51 43 inlet;
#X obj 90 41 inlet;
#X obj 135 42 inlet;
#X obj 278 40 inlet;
#X obj 319 40 inlet;
#X obj 368 40 inlet;
#X obj 414 40 inlet;
#X obj 568 42 inlet;
#X obj 610 42 inlet;
#X obj 650 41 inlet;
#X obj 861 16 inlet;
#X obj 910 32 inlet;
#X obj 950 31 inlet;
#X text 19 11 distance;
#X text 336 16 accel;
#X text 603 10 ypr;
#X text 914 7 sound;
#N canvas 676 130 450 300 mapDistance1 0;
#X obj 15 33 inlet;
#X obj 16 196 outlet;
#X obj 16 128 map_min-max;
#X text 63 53 input;
#X text 45 95 low;
#X text 87 96 high;
#X text 147 95 low;
#X text 189 96 high;
#X text 161 52 output;
#X obj 117 25 loadbang;
#X msg 46 77 10;
#X msg 88 76 355;
#X msg 147 75 0;
#X msg 190 75 1;
#X connect 0 0 2 0;
#X connect 2 0 1 0;
#X connect 9 0 13 0;
#X connect 9 0 12 0;
#X connect 9 0 11 0;
#X connect 9 0 10 0;
#X connect 10 0 2 1;
#X connect 11 0 2 2;
#X connect 12 0 2 3;
#X connect 13 0 2 4;
#X restore -94 73 pd mapDistance1;
#N canvas 255 165 450 300 mapDistance1 0;
#X obj 15 33 inlet;
#X obj 16 196 outlet;
#X obj 16 128 map_min-max;
#X text 63 53 input;
#X text 45 95 low;
#X text 87 96 high;
#X text 147 95 low;
#X text 189 96 high;
#X text 161 52 output;
#X obj 117 25 loadbang;
#X msg 147 75 0;
#X msg 190 75 1;
#X msg 46 77 5;
#X msg 88 76 310;
#X connect 0 0 2 0;
#X connect 2 0 1 0;
#X connect 9 0 11 0;
#X connect 9 0 10 0;
#X connect 9 0 13 0;
#X connect 9 0 12 0;
#X connect 10 0 2 3;
#X connect 11 0 2 4;
#X connect 12 0 2 1;
#X connect 13 0 2 2;
#X restore -48 97 pd mapDistance1;
#N canvas 0 22 450 300 mapDistance3 0;
#X obj 15 33 inlet;
#X obj 16 196 outlet;
#X obj 16 128 map_min-max;
#X text 63 53 input;
#X text 45 95 low;
#X text 87 96 high;
#X text 147 95 low;
#X text 189 96 high;
#X text 161 52 output;
#X obj 117 25 loadbang;
#X msg 147 75 0;
#X msg 190 75 1;
#X msg 46 77 5;
#X msg 88 76 290;
#X connect 0 0 2 0;
#X connect 2 0 1 0;
#X connect 9 0 11 0;
#X connect 9 0 10 0;
#X connect 9 0 13 0;
#X connect 9 0 12 0;
#X connect 10 0 2 3;
#X connect 11 0 2 4;
#X connect 12 0 2 1;
#X connect 13 0 2 2;
#X restore 3 129 pd mapDistance3;
#N canvas 0 22 450 300 mapDistance4 0;
#X obj 15 33 inlet;
#X obj 16 196 outlet;
#X obj 16 128 map_min-max;
#X text 63 53 input;
#X text 45 95 low;
#X text 87 96 high;
#X text 147 95 low;
#X text 189 96 high;
#X text 161 52 output;
#X obj 117 25 loadbang;
#X msg 147 75 0;
#X msg 190 75 1;
#X msg 46 77 20;
#X msg 88 76 390;
#X connect 0 0 2 0;
#X connect 2 0 1 0;
#X connect 9 0 11 0;
#X connect 9 0 10 0;
#X connect 9 0 13 0;
#X connect 9 0 12 0;
#X connect 10 0 2 3;
#X connect 11 0 2 4;
#X connect 12 0 2 1;
#X connect 13 0 2 2;
#X restore 48 151 pd mapDistance4;
#N canvas 0 22 450 300 mapDistance5 0;
#X obj 15 33 inlet;
#X obj 16 196 outlet;
#X obj 16 128 map_min-max;
#X text 63 53 input;
#X text 45 95 low;
#X text 87 96 high;
#X text 147 95 low;
#X text 189 96 high;
#X text 161 52 output;
#X obj 117 25 loadbang;
#X msg 147 75 0;
#X msg 190 75 1;
#X msg 88 76 316;
#X msg 46 77 14;
#X connect 0 0 2 0;
#X connect 2 0 1 0;
#X connect 9 0 11 0;
#X connect 9 0 10 0;
#X connect 9 0 12 0;
#X connect 9 0 13 0;
#X connect 10 0 2 3;
#X connect 11 0 2 4;
#X connect 12 0 2 2;
#X connect 13 0 2 1;
#X restore 90 189 pd mapDistance5;
#N canvas 0 22 450 300 mapDistance6 0;
#X obj 15 33 inlet;
#X obj 16 196 outlet;
#X obj 16 128 map_min-max;
#X text 63 53 input;
#X text 45 95 low;
#X text 87 96 high;
#X text 147 95 low;
#X text 189 96 high;
#X text 161 52 output;
#X obj 117 25 loadbang;
#X msg 147 75 0;
#X msg 190 75 1;
#X msg 46 77 5;
#X msg 88 76 305;
#X connect 0 0 2 0;
#X connect 2 0 1 0;
#X connect 9 0 11 0;
#X connect 9 0 10 0;
#X connect 9 0 13 0;
#X connect 9 0 12 0;
#X connect 10 0 2 3;
#X connect 11 0 2 4;
#X connect 12 0 2 1;
#X connect 13 0 2 2;
#X restore 136 212 pd mapDistance6;
#N canvas 0 22 154 159 vector_xy 0;
#X obj 17 79 vector;
#X floatatom 17 41 5 0 0 0 x - -;
#X floatatom 74 41 5 0 0 1 y - -;
#X obj 74 62 t b f;
#X obj 17 104 outlet;
#X obj 17 16 inlet;
#X obj 74 16 inlet;
#X connect 0 0 4 0;
#X connect 1 0 0 0;
#X connect 2 0 3 0;
#X connect 3 0 1 0;
#X connect 3 1 0 1;
#X connect 5 0 1 0;
#X connect 6 0 2 0;
#X restore 204 119 pd vector_xy;
#N canvas 21 321 450 300 mapPulse 0;
#X obj 15 33 inlet;
#X obj 16 196 outlet;
#X obj 16 128 map_min-max;
#X text 63 53 input;
#X text 45 95 low;
#X text 87 96 high;
#X text 147 95 low;
#X text 189 96 high;
#X text 161 52 output;
#X obj 117 25 loadbang;
#X msg 46 77 0;
#X msg 88 76 1;
#X msg 190 75 120;
#X msg 147 75 60;
#X floatatom 114 193 5 0 0 0 - - -;
#X connect 0 0 2 0;
#X connect 2 0 1 0;
#X connect 2 0 14 0;
#X connect 9 0 12 0;
#X connect 9 0 13 0;
#X connect 9 0 11 0;
#X connect 9 0 10 0;
#X connect 10 0 2 1;
#X connect 11 0 2 2;
#X connect 12 0 2 4;
#X connect 13 0 2 3;
#X restore 103 354 pd mapPulse;
#N canvas 0 22 154 159 vector_xy 0;
#X obj 17 79 vector;
#X floatatom 17 41 5 0 0 0 x - -;
#X floatatom 74 41 5 0 0 1 y - -;
#X obj 74 62 t b f;
#X obj 17 104 outlet;
#X obj 17 16 inlet;
#X obj 74 16 inlet;
#X connect 0 0 4 0;
#X connect 1 0 0 0;
#X connect 2 0 3 0;
#X connect 3 0 1 0;
#X connect 3 1 0 1;
#X connect 5 0 1 0;
#X connect 6 0 2 0;
#X restore -94 126 pd vector_xy;
#N canvas 0 22 154 159 vector_xy 0;
#X obj 17 79 vector;
#X floatatom 17 41 5 0 0 0 x - -;
#X floatatom 74 41 5 0 0 1 y - -;
#X obj 74 62 t b f;
#X obj 17 104 outlet;
#X obj 17 16 inlet;
#X obj 74 16 inlet;
#X connect 0 0 4 0;
#X connect 1 0 0 0;
#X connect 2 0 3 0;
#X connect 3 0 1 0;
#X connect 3 1 0 1;
#X connect 5 0 1 0;
#X connect 6 0 2 0;
#X restore 3 178 pd vector_xy;
#N canvas 0 22 154 159 vector_xy 0;
#X obj 17 79 vector;
#X floatatom 17 41 5 0 0 0 x - -;
#X floatatom 74 41 5 0 0 1 y - -;
#X obj 74 62 t b f;
#X obj 17 104 outlet;
#X obj 17 16 inlet;
#X obj 74 16 inlet;
#X connect 0 0 4 0;
#X connect 1 0 0 0;
#X connect 2 0 3 0;
#X connect 3 0 1 0;
#X connect 3 1 0 1;
#X connect 5 0 1 0;
#X connect 6 0 2 0;
#X restore 90 236 pd vector_xy;
#N canvas 477 22 448 200 if_one_open_another 0;
#X obj 145 47 inlet;
#X obj 36 160 outlet;
#X obj 33 19 inlet;
#X text 23 32 magnitude;
#X text 30 -2 accel z;
#X obj 93 126 *;
#X obj 30 83 spigot;
#X floatatom 72 62 5 0 0 0 - - -;
#X floatatom 271 138 5 0 0 0 - - -;
#X obj 191 77 < 20;
#X obj 145 132 line;
#X msg 139 107 0.2 100;
#X msg 199 105 \$1 100;
#X floatatom 264 96 5 0 0 0 - - -;
#X obj 94 88 > 100;
#X connect 0 0 13 0;
#X connect 0 0 14 0;
#X connect 2 0 12 0;
#X connect 2 0 6 0;
#X connect 6 0 1 0;
#X connect 7 0 6 1;
#X connect 10 0 5 1;
#X connect 11 0 10 0;
#X connect 12 0 10 0;
#X connect 14 0 7 0;
#X restore 369 94 pd if_one_open_another;
#N canvas 0 22 450 300 mapVibration 0;
#X obj 15 33 inlet;
#X obj 16 196 outlet;
#X obj 16 128 map_min-max;
#X text 63 53 input;
#X text 45 95 low;
#X text 87 96 high;
#X text 147 95 low;
#X text 189 96 high;
#X text 161 52 output;
#X obj 117 25 loadbang;
#X msg 46 77 0;
#X msg 88 76 102;
#X msg 147 75 0;
#X msg 190 75 0.8;
#X connect 0 0 2 0;
#X connect 2 0 1 0;
#X connect 9 0 13 0;
#X connect 9 0 12 0;
#X connect 9 0 11 0;
#X connect 9 0 10 0;
#X connect 10 0 2 1;
#X connect 11 0 2 2;
#X connect 12 0 2 3;
#X connect 13 0 2 4;
#X restore 402 70 pd mapVibration;
#X text 420 17 mag;
#N canvas 37 447 450 300 accelX 0;
#X obj 15 33 inlet;
#X obj 16 196 outlet;
#X obj 16 128 map_min-max;
#X text 63 53 input;
#X text 45 95 low;
#X text 87 96 high;
#X text 147 95 low;
#X text 189 96 high;
#X text 161 52 output;
#X obj 117 25 loadbang;
#X msg 46 77 0;
#X msg 88 76 200;
#X floatatom 166 189 5 0 0 0 - - -;
#X msg 147 75 0;
#X msg 190 75 2.5;
#X connect 0 0 2 0;
#X connect 2 0 1 0;
#X connect 2 0 12 0;
#X connect 9 0 14 0;
#X connect 9 0 13 0;
#X connect 9 0 11 0;
#X connect 9 0 10 0;
#X connect 10 0 2 1;
#X connect 11 0 2 2;
#X connect 13 0 2 3;
#X connect 14 0 2 4;
#X restore 311 249 pd accelX;
#N canvas 0 22 450 300 accelY 0;
#X obj 15 33 inlet;
#X obj 16 196 outlet;
#X obj 16 128 map_min-max;
#X text 63 53 input;
#X text 45 95 low;
#X text 87 96 high;
#X text 147 95 low;
#X text 189 96 high;
#X text 161 52 output;
#X obj 117 25 loadbang;
#X msg 46 77 0;
#X msg 147 75 0;
#X msg 190 75 1;
#X msg 88 76 102;
#X connect 0 0 2 0;
#X connect 2 0 1 0;
#X connect 9 0 12 0;
#X connect 9 0 11 0;
#X connect 9 0 13 0;
#X connect 9 0 10 0;
#X connect 10 0 2 1;
#X connect 11 0 2 3;
#X connect 12 0 2 4;
#X connect 13 0 2 2;
#X restore 300 79 pd accelY;
#N canvas 829 455 450 300 mapReverb 0;
#X obj 15 33 inlet;
#X obj 16 196 outlet;
#X obj 16 128 map_min-max;
#X text 63 53 input;
#X text 45 95 low;
#X text 87 96 high;
#X text 147 95 low;
#X text 189 96 high;
#X text 161 52 output;
#X obj 117 25 loadbang;
#X msg 46 77 -70;
#X msg 147 75 0;
#X msg 190 75 1;
#X msg 88 76 60;
#X connect 0 0 2 0;
#X connect 2 0 1 0;
#X connect 9 0 12 0;
#X connect 9 0 11 0;
#X connect 9 0 13 0;
#X connect 9 0 10 0;
#X connect 10 0 2 1;
#X connect 11 0 2 3;
#X connect 12 0 2 4;
#X connect 13 0 2 2;
#X restore 611 113 pd mapReverb;
#N canvas 341 285 631 478 freeze 0;
#X obj 40 63 max 10;
#X obj 40 86 sel 10;
#X obj 38 216 change;
#X obj 89 62 max 10;
#X obj 89 85 sel 10;
#X obj 134 62 max 10;
#X obj 134 85 sel 10;
#X obj 38 279 change;
#X msg 38 259 \$1;
#X text 48 17 y;
#X text 100 17 p;
#X text 147 18 r;
#X obj 38 306 outlet;
#X obj 39 36 inlet;
#X obj 88 34 inlet;
#X obj 137 34 inlet;
#X floatatom 43 5 5 0 0 0 - - -;
#X floatatom 88 4 5 0 0 0 - - -;
#X floatatom 137 4 5 0 0 0 - - -;
#X msg 175 111 0;
#X msg 40 110 2;
#X msg 89 109 2;
#X msg 135 111 2;
#X floatatom 38 239 5 0 0 0 - - -;
#X obj 109 310 bng 15 250 50 0 empty empty empty 17 7 0 10 -262144
-1 -1;
#X obj 269 250 m_thresholds -70;
#X msg 269 297 1;
#X msg 340 321 1;
#X msg 394 342 0;
#X connect 0 0 1 0;
#X connect 1 0 20 0;
#X connect 1 1 19 0;
#X connect 2 0 23 0;
#X connect 3 0 4 0;
#X connect 4 0 21 0;
#X connect 4 1 19 0;
#X connect 5 0 6 0;
#X connect 6 0 22 0;
#X connect 6 1 19 0;
#X connect 7 0 12 0;
#X connect 7 0 24 0;
#X connect 8 0 7 0;
#X connect 13 0 0 0;
#X connect 13 0 16 0;
#X connect 14 0 3 0;
#X connect 14 0 17 0;
#X connect 15 0 5 0;
#X connect 15 0 18 0;
#X connect 19 0 2 0;
#X connect 20 0 2 0;
#X connect 21 0 2 0;
#X connect 22 0 2 0;
#X connect 23 0 8 0;
#X restore 541 113 pd freeze;
#X text 858 95 mic env;
#X obj -94 153 s f1x;
#X obj 3 204 s f2y;
#X obj 90 265 s f3z;
#X obj 84 389 s s_pulse;
#X obj 368 153 s s_vibration;
#X obj 611 136 s r_damping;
#X obj 540 140 s r_freeze;
#X obj 861 78 s over;
#X obj 673 226 s env;
#X obj 416 193 s rampNoise;
#X obj 494 465 s splitter;
#X obj 862 58 tgl 15 0 empty empty empty 17 7 0 10 -262144 -1 -1 0
1;
#N canvas 0 22 450 300 mapPitch 0;
#X obj 15 33 inlet;
#X obj 16 196 outlet;
#X obj 16 128 map_min-max;
#X text 63 53 input;
#X text 45 95 low;
#X text 87 96 high;
#X text 147 95 low;
#X text 189 96 high;
#X text 161 52 output;
#X obj 117 25 loadbang;
#X msg 147 75 0;
#X msg 190 75 1;
#X msg 46 77 -70;
#X msg 88 76 60;
#X connect 0 0 2 0;
#X connect 2 0 1 0;
#X connect 9 0 11 0;
#X connect 9 0 10 0;
#X connect 9 0 13 0;
#X connect 9 0 12 0;
#X connect 10 0 2 3;
#X connect 11 0 2 4;
#X connect 12 0 2 1;
#X connect 13 0 2 2;
#X restore 657 169 pd mapPitch;
#N canvas 0 22 450 300 mapRoll 0;
#X obj 15 33 inlet;
#X obj 16 196 outlet;
#X obj 16 128 map_min-max;
#X text 63 53 input;
#X text 45 95 low;
#X text 87 96 high;
#X text 147 95 low;
#X text 189 96 high;
#X text 161 52 output;
#X obj 117 25 loadbang;
#X msg 147 75 0;
#X msg 190 75 1;
#X msg 46 77 -35;
#X msg 89 76 20;
#X connect 0 0 2 0;
#X connect 2 0 1 0;
#X connect 9 0 11 0;
#X connect 9 0 10 0;
#X connect 9 0 13 0;
#X connect 9 0 12 0;
#X connect 10 0 2 3;
#X connect 11 0 2 4;
#X connect 12 0 2 1;
#X connect 13 0 2 2;
#X restore 742 169 pd mapRoll;
#X floatatom 475 44 5 0 0 0 - - -;
#N canvas 89 252 495 370 accelSens 0;
#X obj 118 61 inlet;
#X msg 211 277 0 100;
#X msg 264 278 1 100;
#X obj 212 226 sel 0 1;
#X obj 237 129 hsl 50 15 0 1 0 0 empty empty empty -2 -8 0 10 -262144
-1 -1 980 1;
#X text 231 146 0;
#X text 281 146 50;
#X text 248 146 25;
#X obj 160 35 loadbang;
#X text 233 111 sensitivity;
#X obj 211 313 line;
#X obj 211 345 outlet;
#X obj 299 128 tgl 15 0 empty empty empty 17 7 0 10 -262144 -1 -1 0
1;
#X msg 159 61 0.2;
#X obj 212 190 > 0.2;
#X connect 0 0 14 0;
#X connect 1 0 10 0;
#X connect 2 0 10 0;
#X connect 3 0 1 0;
#X connect 3 1 2 0;
#X connect 4 0 14 1;
#X connect 8 0 13 0;
#X connect 10 0 11 0;
#X connect 13 0 4 0;
#X connect 14 0 3 0;
#X connect 14 0 12 0;
#X restore 553 212 pd accelSens;
#N canvas 89 252 495 370 accelSens2 0;
#X obj 118 61 inlet;
#X msg 211 277 0 100;
#X msg 264 278 1 100;
#X obj 212 226 sel 0 1;
#X obj 237 129 hsl 50 15 0 1 0 0 empty empty empty -2 -8 0 10 -262144
-1 -1 980 1;
#X text 231 146 0;
#X text 281 146 50;
#X text 248 146 25;
#X obj 160 35 loadbang;
#X text 233 111 sensitivity;
#X obj 211 313 line;
#X obj 211 345 outlet;
#X obj 299 128 tgl 15 0 empty empty empty 17 7 0 10 -262144 -1 -1 0
1;
#X msg 159 61 0.2;
#X obj 212 190 > 0.2;
#X connect 0 0 14 0;
#X connect 1 0 10 0;
#X connect 2 0 10 0;
#X connect 3 0 1 0;
#X connect 3 1 2 0;
#X connect 4 0 14 1;
#X connect 8 0 13 0;
#X connect 10 0 11 0;
#X connect 13 0 4 0;
#X connect 14 0 3 0;
#X connect 14 0 12 0;
#X restore 549 238 pd accelSens2;
#N canvas 89 252 495 370 accelSens3 0;
#X obj 118 61 inlet;
#X msg 211 277 0 100;
#X msg 264 278 1 100;
#X obj 212 226 sel 0 1;
#X obj 237 129 hsl 50 15 0 1 0 0 empty empty empty -2 -8 0 10 -262144
-1 -1 980 1;
#X text 231 146 0;
#X text 281 146 50;
#X text 248 146 25;
#X obj 160 35 loadbang;
#X text 233 111 sensitivity;
#X obj 211 313 line;
#X obj 211 345 outlet;
#X obj 299 128 tgl 15 0 empty empty empty 17 7 0 10 -262144 -1 -1 0
1;
#X msg 159 61 0.2;
#X obj 212 190 > 0.2;
#X connect 0 0 14 0;
#X connect 1 0 10 0;
#X connect 2 0 10 0;
#X connect 3 0 1 0;
#X connect 3 1 2 0;
#X connect 4 0 14 1;
#X connect 8 0 13 0;
#X connect 10 0 11 0;
#X connect 13 0 4 0;
#X connect 14 0 3 0;
#X connect 14 0 12 0;
#X restore 576 254 pd accelSens3;
#N canvas 0 22 154 159 vector_xy 0;
#X obj 17 79 vector;
#X floatatom 17 41 5 0 0 0 x - -;
#X floatatom 74 41 5 0 0 1 y - -;
#X obj 74 62 t b f;
#X obj 17 104 outlet;
#X obj 17 16 inlet;
#X obj 74 16 inlet;
#X connect 0 0 4 0;
#X connect 1 0 0 0;
#X connect 2 0 3 0;
#X connect 3 0 1 0;
#X connect 3 1 0 1;
#X connect 5 0 1 0;
#X connect 6 0 2 0;
#X restore 411 249 pd vector_xy;
#N canvas 816 604 450 300 mapa 0;
#X obj 15 33 inlet;
#X obj 16 196 outlet;
#X obj 16 128 map_min-max;
#X text 63 53 input;
#X text 45 95 low;
#X text 87 96 high;
#X text 147 95 low;
#X text 189 96 high;
#X text 161 52 output;
#X obj 117 25 loadbang;
#X msg 46 77 -70;
#X msg 147 75 0;
#X msg 190 75 1;
#X msg 88 76 60;
#X connect 0 0 2 0;
#X connect 2 0 1 0;
#X connect 9 0 12 0;
#X connect 9 0 11 0;
#X connect 9 0 13 0;
#X connect 9 0 10 0;
#X connect 10 0 2 1;
#X connect 11 0 2 3;
#X connect 12 0 2 4;
#X connect 13 0 2 2;
#X restore 700 77 pd mapa;
#N canvas 829 455 450 300 mapb 0;
#X obj 15 33 inlet;
#X obj 16 196 outlet;
#X obj 16 128 map_min-max;
#X text 63 53 input;
#X text 45 95 low;
#X text 87 96 high;
#X text 147 95 low;
#X text 189 96 high;
#X text 161 52 output;
#X obj 117 25 loadbang;
#X msg 147 75 0;
#X msg 190 75 1;
#X msg 46 77 -35;
#X msg 88 76 20;
#X connect 0 0 2 0;
#X connect 2 0 1 0;
#X connect 9 0 11 0;
#X connect 9 0 10 0;
#X connect 9 0 13 0;
#X connect 9 0 12 0;
#X connect 10 0 2 3;
#X connect 11 0 2 4;
#X connect 12 0 2 1;
#X connect 13 0 2 2;
#X restore 757 87 pd mapb;
#N canvas 0 22 154 159 vector_xy 0;
#X obj 17 79 vector;
#X floatatom 17 41 5 0 0 0 x - -;
#X floatatom 74 41 5 0 0 1 y - -;
#X obj 74 62 t b f;
#X obj 17 104 outlet;
#X obj 17 16 inlet;
#X obj 74 16 inlet;
#X connect 0 0 4 0;
#X connect 1 0 0 0;
#X connect 2 0 3 0;
#X connect 3 0 1 0;
#X connect 3 1 0 1;
#X connect 5 0 1 0;
#X connect 6 0 2 0;
#X restore 742 135 pd vector_xy;
#N canvas 0 22 450 300 mapVibration 0;
#X obj 15 33 inlet;
#X obj 16 196 outlet;
#X obj 16 128 map_min-max;
#X text 63 53 input;
#X text 45 95 low;
#X text 87 96 high;
#X text 147 95 low;
#X text 189 96 high;
#X text 161 52 output;
#X obj 117 25 loadbang;
#X msg 46 77 0;
#X msg 88 76 102;
#X msg 147 75 0;
#X msg 190 75 1;
#X connect 0 0 2 0;
#X connect 2 0 1 0;
#X connect 9 0 13 0;
#X connect 9 0 12 0;
#X connect 9 0 11 0;
#X connect 9 0 10 0;
#X connect 10 0 2 1;
#X connect 11 0 2 2;
#X connect 12 0 2 3;
#X connect 13 0 2 4;
#X restore 467 287 pd mapVibration;
#X obj 747 301 s changepart;
#X obj 312 301 s s_pulseA;
#N canvas 925 250 450 300 mapSplit 0;
#X obj 15 33 inlet;
#X obj 16 196 outlet;
#X obj 16 128 map_min-max;
#X text 63 53 input;
#X text 45 95 low;
#X text 87 96 high;
#X text 147 95 low;
#X text 189 96 high;
#X text 161 52 output;
#X obj 117 25 loadbang;
#X msg 46 77 0;
#X msg 190 75 250;
#X msg 88 76 1;
#X msg 147 75 30;
#X obj 225 123 expr ($f1 -45.5)*1;
#X connect 0 0 2 0;
#X connect 2 0 1 0;
#X connect 9 0 11 0;
#X connect 9 0 13 0;
#X connect 9 0 12 0;
#X connect 9 0 10 0;
#X connect 10 0 2 1;
#X connect 11 0 2 4;
#X connect 12 0 2 2;
#X connect 13 0 2 3;
#X restore 375 332 pd mapSplit;
#X floatatom 319 203 5 0 0 0 - - -;
#X floatatom 372 203 5 0 0 0 - - -;
#X obj 508 324 expr ($f1 -45.5)*1;
#X floatatom 509 346 5 0 0 0 - - -;
#X obj 509 368 threshold 54 20 35 20;
#X obj 507 403 bng 15 250 50 0 empty empty empty 17 7 0 10 -262144
-1 -1;
#X obj 245 143 expr ($f1 -45.5)*1;
#X msg 507 428 1;
#X obj 785 251;
#X obj 687 199 distance;
#X obj 245 330 s un_pulse;
#N canvas 0 22 450 300 accelaX 0;
#X obj 15 33 inlet;
#X obj 16 196 outlet;
#X obj 16 128 map_min-max;
#X text 63 53 input;
#X text 45 95 low;
#X text 87 96 high;
#X text 147 95 low;
#X text 189 96 high;
#X text 161 52 output;
#X obj 117 25 loadbang;
#X msg 46 77 0;
#X msg 147 75 0;
#X msg 88 76 102;
#X msg 190 75 1;
#X connect 0 0 2 0;
#X connect 2 0 1 0;
#X connect 9 0 13 0;
#X connect 9 0 11 0;
#X connect 9 0 12 0;
#X connect 9 0 10 0;
#X connect 10 0 2 1;
#X connect 11 0 2 3;
#X connect 12 0 2 2;
#X connect 13 0 2 4;
#X restore 229 171 pd accelaX;
#X text 805 107 rifare non va bene deve essere inamico;
#X text 171 378 lavorare su una scala migliore;
#N canvas 412 22 450 300 accelX 0;
#X obj 15 33 inlet;
#X obj 16 196 outlet;
#X obj 16 128 map_min-max;
#X text 63 53 input;
#X text 45 95 low;
#X text 87 96 high;
#X text 147 95 low;
#X text 189 96 high;
#X text 161 52 output;
#X obj 117 25 loadbang;
#X msg 46 77 0;
#X msg 88 76 200;
#X floatatom 166 189 5 0 0 0 - - -;
#X msg 147 75 2.5;
#X msg 190 75 0;
#X connect 0 0 2 0;
#X connect 2 0 1 0;
#X connect 2 0 12 0;
#X connect 9 0 14 0;
#X connect 9 0 13 0;
#X connect 9 0 11 0;
#X connect 9 0 10 0;
#X connect 10 0 2 1;
#X connect 11 0 2 2;
#X connect 13 0 2 3;
#X connect 14 0 2 4;
#X restore 357 274 pd accelX;
#X obj 395 306 s s_pulseAAA;
#X connect 0 0 20 0;
#X connect 1 0 21 0;
#X connect 2 0 22 0;
#X connect 3 0 23 0;
#X connect 4 0 24 0;
#X connect 5 0 25 0;
#X connect 6 0 65 0;
#X connect 6 0 76 0;
#X connect 7 0 35 0;
#X connect 7 0 66 0;
#X connect 9 0 48 0;
#X connect 9 0 53 0;
#X connect 9 0 32 0;
#X connect 9 0 31 1;
#X connect 9 0 61 0;
#X connect 9 0 34 0;
#X connect 9 0 79 0;
#X connect 10 0 37 0;
#X connect 11 0 36 0;
#X connect 11 0 37 1;
#X connect 11 0 51 0;
#X connect 11 0 58 0;
#X connect 11 0 62 0;
#X connect 12 0 37 2;
#X connect 12 0 52 0;
#X connect 12 0 59 0;
#X connect 13 0 50 0;
#X connect 20 0 28 0;
#X connect 21 0 28 1;
#X connect 22 0 29 0;
#X connect 23 0 29 1;
#X connect 24 0 30 0;
#X connect 25 0 30 1;
#X connect 27 0 42 0;
#X connect 28 0 39 0;
#X connect 29 0 40 0;
#X connect 30 0 41 0;
#X connect 31 0 43 0;
#X connect 32 0 31 0;
#X connect 34 0 63 0;
#X connect 36 0 44 0;
#X connect 37 0 45 0;
#X connect 50 0 46 0;
#X connect 51 0 74 0;
#X connect 52 0 74 1;
#X connect 58 0 60 0;
#X connect 59 0 60 1;
#X connect 60 0 27 0;
#X connect 65 0 67 0;
#X connect 67 0 68 0;
#X connect 68 0 69 0;
#X connect 69 0 70 0;
#X connect 70 0 72 0;
#X connect 72 0 49 0;
#X connect 74 0 47 0;
#X connect 76 0 75 0;
#X connect 79 0 80 0;
