#N canvas 351 124 927 398 10;
#X obj 19 36 inlet;
#X obj 63 37 inlet;
#X obj 105 38 inlet;
#X obj 148 38 inlet;
#X obj 192 39 inlet;
#X obj 237 40 inlet;
#X obj 316 39 inlet;
#X obj 358 39 inlet;
#X obj 398 38 inlet;
#X obj 440 38 inlet;
#X obj 523 38 inlet;
#X obj 565 38 inlet;
#X obj 605 37 inlet;
#X obj 668 35 inlet;
#X obj 710 35 inlet;
#X obj 750 34 inlet;
#X text 121 7 distance;
#X text 359 16 accel;
#X text 561 6 ypr;
#X text 714 10 sound;
#X obj 19 87 a.mapping.module;
#X connect 0 0 20 0;
