#N canvas 658 22 685 231 10;
#X declare -lib mrpeach;
#X declare -lib mrpeach;
#N canvas 253 157 259 167 sendValuesBack 0;
#X obj -149 47 cnv 15 74 52 empty empty empty 20 12 0 14 -191407 -66577
0;
#X obj -146 62 tgl 15 0 empty empty empty 17 7 0 10 -262144 -1 -1 0
1;
#X obj -150 7 import mrpeach;
#N canvas 644 143 638 262 sendBackOSC_ctrl 0;
#X msg -212 -10 disconnect;
#X msg -285 -40 connect localhost 6448;
#X obj -181 19 r realValueData;
#X obj -213 -84 sel 0 1;
#X obj -135 -10 loadbang;
#X msg -181 44 send /realValue \$1 \$2 \$3 \$4 \$5 \$6 \$7 \$8 \$9
\$10 \$11;
#X text -112 -60 send values back to wekinator;
#X connect 2 0 5 0;
#X connect 3 0 0 0;
#X connect 3 1 1 0;
#X connect 4 0 0 0;
#X restore -122 137 pd sendBackOSC_ctrl;
#X text -91 119 OSC send back;
#X text -149 31 OSC back;
#X text -128 61 connect;
#X obj -139 39 tgl 50 0 empty empty empty 17 7 0 10 -262144 -1 -1 1
1;
#X obj -48 66 loadbang;
#X connect 8 0 7 0;
#X coords 0 -1 1 1 75 70 2 -150 30;
#X restore -120 138 pd sendValuesBack;
#N canvas 767 22 574 402 receiveOSCvalues 0;
#X obj -149 136 cnv 15 540 90 empty empty empty 20 12 0 14 -233017
-66577 0;
#X floatatom -75 143 5 0 0 0 - - -;
#X floatatom -38 142 5 0 0 0 - - -;
#X floatatom -1 142 5 0 0 0 - - -;
#X floatatom 39 142 5 0 0 0 - - -;
#X floatatom 78 142 5 0 0 0 - - -;
#X floatatom 116 142 5 0 0 0 - - -;
#X text -144 120 OSC receive values;
#X floatatom 180 193 5 0 0 0 - - -;
#X floatatom 219 194 5 0 0 0 - - -;
#X floatatom 256 193 5 0 0 0 - - -;
#X floatatom 294 194 5 0 0 0 - - -;
#X floatatom 334 196 5 0 0 0 - - -;
#X obj -145 376 s realValueData;
#N canvas 322 22 309 171 receiveOSC_ctrl 0;
#X obj -176 -15 unpackOSC;
#X obj -176 8 routeOSC /oscCustomFeatures;
#X obj -19 50 s oscCustomUnpack;
#X obj -175 84 import mrpeach;
#X obj -176 -36 udpreceive 6448;
#X connect 0 0 1 0;
#X connect 1 0 2 0;
#X connect 4 0 0 0;
#X restore -146 5 pd receiveOSC_ctrl;
#X symbolatom -144 142 10 0 0 0 - - -;
#X obj -146 27 r oscCustomUnpack;
#X msg 19 353 bang;
#X text -72 159 1;
#X text -28 158 2;
#X text 6 158 3;
#X text 45 157 4;
#X text 85 158 5;
#X text 122 160 6;
#X text 276 7 for Alvin (Curran);
#X obj -145 353 pack f f f f f f f f f f f;
#X obj -8 304 a.mapping.forAlvin++++++++++++++++++++;
#X floatatom 141 195 5 0 0 0 - - -;
#X floatatom 157 144 5 0 0 0 - - -;
#X floatatom 197 144 5 0 0 0 - - -;
#X floatatom 236 144 5 0 0 0 - - -;
#X floatatom 274 144 5 0 0 0 - - -;
#X text 164 160 7;
#X text 203 159 8;
#X text 243 160 9;
#X text 280 162 10;
#X text 145 212 11;
#X text 184 210 12;
#X text 226 209 13;
#X text 266 210 14;
#X text 303 209 15;
#X text 343 211 16;
#X obj -146 51 unpack f f f f f f f f f f f f f f f f;
#X connect 1 0 26 0;
#X connect 2 0 26 1;
#X connect 3 0 26 2;
#X connect 4 0 26 3;
#X connect 5 0 26 4;
#X connect 6 0 26 5;
#X connect 8 0 26 11;
#X connect 9 0 26 12;
#X connect 10 0 26 15;
#X connect 11 0 26 13;
#X connect 12 0 26 14;
#X connect 16 0 42 0;
#X connect 17 0 25 0;
#X connect 25 0 13 0;
#X connect 27 0 26 10;
#X connect 28 0 26 6;
#X connect 29 0 26 7;
#X connect 30 0 26 8;
#X connect 31 0 26 9;
#X connect 42 0 1 0;
#X connect 42 1 2 0;
#X connect 42 2 3 0;
#X connect 42 3 4 0;
#X connect 42 4 5 0;
#X connect 42 5 6 0;
#X connect 42 6 28 0;
#X connect 42 7 29 0;
#X connect 42 8 30 0;
#X connect 42 9 31 0;
#X connect 42 10 27 0;
#X connect 42 11 8 0;
#X connect 42 12 9 0;
#X connect 42 13 10 0;
#X connect 42 14 11 0;
#X connect 42 15 12 0;
#X coords 0 -1 1 1 542 108 2 -150 120;
#X restore -45 100 pd receiveOSCvalues;
#X coords 0 -1 1 1 619 108 2 -120 100;
