#N canvas 150 237 508 463 10;
#X declare -lib iemgui;
#X obj 134 137 dac~;
#X obj 169 -8 inlet~;
#X obj 179 31 r \$0-v;
#X obj 172 138 outlet~;
#X obj 76 137 outlet~;
#X obj 179 87 line~;
#X msg 179 64 \$1 10;
#X obj 169 112 *~;
#X obj 134 112 *~;
#X obj 350 2 cnv 15 60 150 s_route r_route_dsp empty 20 12 0 14 -233017
-66577 0;
#X obj 352 5 tgl 16 0 \$0-d \$0-d DSP 20 9 0 8 -260818 -123526 -33289
0 1;
#X obj 352 26 vsl 15 120 0 1 0 0 empty empty empty 0 -9 0 10 -260097
-1 -1 7300 1;
#X obj 377 27 iem_vu 16 120 empty empty -1 -8 0 8 -66577 -1 1 0;
#X obj 212 207 s~ voice1;
#X obj 378 -54 r~ voice1;
#X obj 272 -205 import iemgui;
#X obj 378 -27 extra.rms_to_db;
#X obj 133 -92 catch~ voice_processed;
#X floatatom 252 32 5 0 0 0 - - -;
#X floatatom 361 162 5 0 0 0 - - -;
#X obj 319 -149 timbreID-vowel;
#X obj 31 -115 ead~ 0 0;
#X obj 31 -186 metro;
#X floatatom 61 -214 5 0 0 0 - - -;
#X floatatom 56 -162 5 0 0 0 - - -;
#X floatatom 82 -140 5 0 0 0 - - -;
#X obj 31 -213 tgl 15 0 empty empty empty 0 -6 0 8 -262144 -1 -1 0
1;
#X floatatom 257 -11 5 0 0 0 - - -;
#X connect 5 0 7 1;
#X connect 5 0 8 1;
#X connect 6 0 5 0;
#X connect 7 0 0 1;
#X connect 7 0 3 0;
#X connect 7 0 13 0;
#X connect 8 0 0 0;
#X connect 8 0 4 0;
#X connect 8 0 13 0;
#X connect 11 0 6 0;
#X connect 11 0 19 0;
#X connect 14 0 16 0;
#X connect 16 0 12 0;
#X connect 16 1 12 1;
#X connect 17 0 20 0;
#X connect 17 0 8 0;
#X connect 17 0 7 0;
#X connect 18 0 6 0;
#X connect 22 0 21 0;
#X connect 23 0 22 1;
#X connect 24 0 21 1;
#X connect 25 0 21 2;
#X connect 26 0 22 0;
#X connect 27 0 6 0;
#X coords 0 -1 1 1 60 150 2 350 2;
