#N canvas 345 317 798 472 10;
#N canvas 0 22 450 300 using 0;
#X obj 67 239 outlet~;
#X obj 65 134 biquad~;
#X obj 66 154 biquad~;
#X obj 66 174 biquad~;
#X obj 35 110 lowpass 370 310;
#X obj 194 134 biquad~;
#X obj 193 154 biquad~;
#X obj 194 174 biquad~;
#X obj 163 111 bandpass 1175 490;
#X obj 305 111 highpass 2350 130;
#X obj 334 134 biquad~;
#X obj 334 154 biquad~;
#X obj 163 25 loadbang;
#X obj 193 239 outlet~;
#X obj 335 239 outlet~;
#X obj 66 25 inlet~ signal;
#X obj 235 54 switch~;
#X obj 235 25 inlet switch;
#X connect 1 0 2 0;
#X connect 2 0 3 0;
#X connect 3 0 0 0;
#X connect 4 0 1 0;
#X connect 4 0 2 0;
#X connect 4 0 3 0;
#X connect 5 0 6 0;
#X connect 6 0 7 0;
#X connect 7 0 13 0;
#X connect 8 0 5 0;
#X connect 8 0 6 0;
#X connect 8 0 7 0;
#X connect 9 0 10 0;
#X connect 9 0 11 0;
#X connect 10 0 11 0;
#X connect 11 0 14 0;
#X connect 12 0 4 0;
#X connect 12 0 8 0;
#X connect 12 0 9 0;
#X connect 15 0 1 0;
#X connect 15 0 5 0;
#X connect 15 0 10 0;
#X connect 17 0 16 0;
#X restore 383 267 pd using GGEE filter objects;
#N canvas 0 22 727 430 using 0;
#X obj 66 25 inlet~;
#X obj 67 369 outlet~;
#X obj 193 369 outlet~;
#X obj 335 369 outlet~;
#X obj 66 80 biquad~ 1.86972 -0.872325 0.000650245 0.00130049 0.000650245
;
#X text 185 59 lo x3;
#X obj 66 100 biquad~ 1.86972 -0.872325 0.000650245 0.00130049 0.000650245
;
#X obj 66 120 biquad~ 1.86972 -0.872325 0.000650245 0.00130049 0.000650245
;
#X obj 194 172 biquad~ 1.36591 -0.385279 0.307361 0 -0.307361;
#X text 329 152 mid x3;
#X obj 194 192 biquad~ 1.36591 -0.385279 0.307361 0 -0.307361;
#X obj 194 212 biquad~ 1.36591 -0.385279 0.307361 0 -0.307361;
#X obj 336 263 biquad~ 1.63386 -0.729864 0.840931 -1.68186 0.840931
;
#X text 476 241 hi x2;
#X obj 336 283 biquad~ 1.63386 -0.729864 0.840931 -1.68186 0.840931
;
#X obj 255 54 switch~;
#X obj 255 25 inlet switch;
#X connect 0 0 4 0;
#X connect 0 0 8 0;
#X connect 0 0 12 0;
#X connect 4 0 6 0;
#X connect 6 0 7 0;
#X connect 7 0 1 0;
#X connect 8 0 10 0;
#X connect 10 0 11 0;
#X connect 11 0 2 0;
#X connect 12 0 14 0;
#X connect 14 0 3 0;
#X connect 16 0 15 0;
#X restore 536 228 pd using raw biquad~ objects;
#X obj 108 264 hsl 128 15 0 1 0 1 empty empty dry/wet -2 -6 0 8 -262144
-1 -1 12700 1;
#X obj 108 116 vsl 15 128 0 1 0 1 empty empty BASS 0 -8 0 8 -262144
-1 -1 12700 1;
#X obj 163 116 vsl 15 128 0 1 0 1 empty empty MIDS 0 -8 0 8 -262144
-1 -1 12700 1;
#X obj 222 116 vsl 15 128 0 1 0 1 empty empty HIGHS 0 -8 0 8 -262144
-1 -1 12700 1;
#N canvas 401 243 528 469 output_mixer 0;
#X obj 39 11 inlet dry/wet;
#X obj 22 -19 inlet~ dry;
#X obj 248 -19 inlet~ bass;
#X obj 338 -19 inlet~ mids;
#X obj 424 -19 inlet~ highs;
#X obj 87 35 inlet bass;
#X obj 127 60 inlet mids;
#X obj 157 86 inlet highs;
#X obj 22 327 outlet~;
#X obj 111 235 *~;
#X obj 141 235 *~;
#X obj 71 235 *~;
#X obj 23 288 *~;
#X obj 70 288 *~;
#X obj 39 35 * -1;
#X obj 39 57 + 1;
#X connect 0 0 14 0;
#X connect 0 0 13 1;
#X connect 1 0 12 0;
#X connect 2 0 11 0;
#X connect 3 0 9 0;
#X connect 4 0 10 0;
#X connect 5 0 11 1;
#X connect 6 0 9 1;
#X connect 7 0 10 1;
#X connect 9 0 13 0;
#X connect 10 0 13 0;
#X connect 11 0 13 0;
#X connect 12 0 8 0;
#X connect 13 0 8 0;
#X connect 14 0 15 0;
#X connect 15 0 12 1;
#X restore 338 373 pd output_mixer;
#X obj 107 293 tgl 15 1 empty empty ON 0 -6 0 8 -262144 -1 -1 1 1;
#X obj 130 292 tgl 15 1 empty empty ON 0 -6 0 8 -262144 -1 -1 0 1;
#X obj 359 177 inlet~;
#X obj 338 410 outlet~;
#X connect 0 0 6 5;
#X connect 0 1 6 6;
#X connect 0 2 6 7;
#X connect 1 0 6 5;
#X connect 1 1 6 6;
#X connect 1 2 6 7;
#X connect 2 0 6 1;
#X connect 3 0 6 2;
#X connect 4 0 6 3;
#X connect 5 0 6 4;
#X connect 6 0 10 0;
#X connect 7 0 0 1;
#X connect 8 0 1 1;
#X connect 9 0 1 0;
#X connect 9 0 6 0;
#X connect 9 0 0 0;
#X coords 0 -1 1 1 150 212 2 100 100;
