#N canvas 441 22 678 215 10;
#X obj 51 53 cnv 15 140 70 empty empty empty 20 12 0 14 -233017 -66577
0;
#X obj 65 53 cnv 15 100 20 empty empty pulse 30 12 0 12 -233017 -260097
0;
#X obj 66 77 cnv 15 100 20 empty empty vibration 30 12 0 12 -233017
-260097 0;
#X floatatom 57 58 5 0 0 0 - r_pulse s_pulse;
#X floatatom 57 81 5 0 0 0 - r_vibration s_vibration;
#X obj 170 57 tgl 15 0 open_2 empty empty 17 7 0 10 -260097 -1 -1 1
1;
#X obj 305 15 catch~ voiced;
#X obj 446 14 catch~ unvoiced;
#X obj 306 177 throw~ freqCtrl;
#X obj 66 100 cnv 15 100 20 empty empty noise 30 12 0 12 -233017 -260097
0;
#X obj 58 104 tgl 15 0 open_1 empty empty 17 7 0 10 -260097 -1 -1 1
1;
#N canvas 149 178 403 351 split_gen 0;
#X obj 13 58 catch~ pulse_sig;
#X obj 154 32 catch~ noise_sig;
#X obj 13 140 throw~ voiced;
#X obj 155 224 throw~ unvoiced;
#X obj 13 100 *~;
#X obj 47 100 tgl 15 0 empty empty empty 17 7 0 10 -262144 -1 -1 1
1;
#X text 170 6 mic;
#X obj 78 101 loadbang;
#N canvas 112 22 783 235 rampVolume 0;
#X obj 13 99 line;
#X obj 13 19 inlet;
#X obj 13 76 * 100;
#N canvas 0 22 450 300 (subpatch) 0;
#X array envelopevolA 10 float 5;
#A 0 0.707143 0.707143 0.707143 0.635715 0.392858 0.0357163 -0.192855
-0.40714 -0.607139 -0.792853;
#X coords 0 1 9 -1 200 140 1;
#X restore 324 37 graph;
#X obj 13 125 tabread envelopevolA;
#X obj 181 99 line;
#X obj 181 76 * 100;
#N canvas 0 22 450 300 (subpatch) 0;
#X array envelopevolB 10 float 5;
#A 0 -0.47856 -0.178554 0.0500231 0.250028 0.378602 0.450032 0.535748
0.564321 0.621465 0.650037;
#X coords 0 1 9 -1 200 140 1;
#X restore 547 38 graph;
#X obj 181 125 tabread envelopevolB;
#X msg 170 165 \$1 50;
#X obj 61 184 line~;
#X obj 149 189 line~;
#X obj 8 201 outlet~;
#X msg 14 153 1 100;
#X connect 0 0 4 0;
#X connect 1 0 2 0;
#X connect 2 0 0 0;
#X connect 5 0 8 0;
#X connect 6 0 5 0;
#X connect 8 0 9 0;
#X connect 9 0 11 0;
#X connect 10 0 12 0;
#X connect 13 0 10 0;
#X restore 170 89 pd rampVolume;
#X obj 233 66 r rampNoise;
#X obj 155 132 *~;
#N canvas 0 22 450 300 accelX 0;
#X obj 15 33 inlet;
#X obj 16 196 outlet;
#X obj 16 128 map_min-max;
#X text 63 53 input;
#X text 45 95 low;
#X text 87 96 high;
#X text 147 95 low;
#X text 189 96 high;
#X text 161 52 output;
#X obj 117 25 loadbang;
#X msg 46 77 0;
#X msg 147 75 0;
#X msg 190 75 1;
#X msg 88 76 102;
#X connect 0 0 2 0;
#X connect 2 0 1 0;
#X connect 9 0 12 0;
#X connect 9 0 11 0;
#X connect 9 0 13 0;
#X connect 9 0 10 0;
#X connect 10 0 2 1;
#X connect 11 0 2 3;
#X connect 12 0 2 4;
#X connect 13 0 2 2;
#X restore 170 65 pd accelX;
#X obj 151 177 *~;
#N canvas 637 121 517 420 sens 0;
#X obj 118 61 inlet;
#X msg 211 277 0 100;
#X msg 264 278 1 100;
#X obj 212 226 sel 0 1;
#X obj 237 129 hsl 50 15 0 1 0 0 empty empty empty -2 -8 0 10 -262144
-1 -1 4900 1;
#X text 231 146 0;
#X text 281 146 50;
#X text 248 146 25;
#X obj 160 35 loadbang;
#X text 233 111 sensitivity;
#X obj 211 313 line;
#X obj 211 345 outlet;
#X obj 299 128 tgl 15 0 empty empty empty 17 7 0 10 -262144 -1 -1 1
1;
#X msg 159 61 1;
#X obj 212 190 >= 1;
#X connect 0 0 14 0;
#X connect 1 0 10 0;
#X connect 2 0 10 0;
#X connect 3 0 1 0;
#X connect 3 1 2 0;
#X connect 4 0 14 1;
#X connect 8 0 13 0;
#X connect 10 0 11 0;
#X connect 13 0 4 0;
#X connect 14 0 3 0;
#X connect 14 0 12 0;
#X restore 273 182 pd sens;
#X obj 272 154 r un_pulse;
#X floatatom 221 154 5 0 0 0 - - -;
#X connect 0 0 4 0;
#X connect 1 0 10 0;
#X connect 1 0 12 0;
#X connect 4 0 2 0;
#X connect 5 0 4 1;
#X connect 7 0 5 0;
#X connect 9 0 11 0;
#X connect 11 0 8 0;
#X connect 11 0 13 0;
#X connect 11 0 15 0;
#X connect 12 0 3 0;
#X connect 13 0 12 1;
#X restore 204 141 pd split_gen;
#N canvas 79 138 543 415 unvoiced_sound 0;
#X text 237 112 frequency;
#X obj 153 376 throw~ noise_sig;
#X text 26 11 il suono -live granular- del microfono;
#X obj 142 153 proc.input.granula_synth;
#X obj 48 64 r windowW;
#X obj 111 45 r transpose;
#X obj 142 123 noise~;
#X obj 138 221 bp~ 500 3;
#X obj 140 182 hip~ 5;
#X obj 140 258 lop~ 240;
#X obj 140 284 lop~ 200;
#X obj 213 258 lop~ 240;
#X obj 213 284 lop~ 200;
#X obj 211 221 bp~ 200 3;
#X obj 141 308 hip~ 2;
#X obj 233 317 hip~ 2;
#N canvas 0 22 450 300 sensitivity 0;
#X restore 397 276 pd sensitivity;
#X obj 270 54 catch~ miczs;
#X obj 71 346 *~;
#X floatatom 32 148 5 0 0 0 - - -;
#X obj 34 190 phasor~;
#X obj 56 283 *~;
#X obj 70 227 pink~;
#X connect 3 0 8 0;
#X connect 7 0 9 0;
#X connect 8 0 7 0;
#X connect 8 0 13 0;
#X connect 9 0 10 0;
#X connect 10 0 14 0;
#X connect 11 0 12 0;
#X connect 12 0 15 0;
#X connect 13 0 11 0;
#X connect 14 0 18 0;
#X connect 14 0 1 0;
#X connect 15 0 18 0;
#X connect 15 0 1 0;
#X connect 17 0 3 0;
#X connect 19 0 20 0;
#X connect 20 0 21 0;
#X connect 21 0 18 1;
#X connect 22 0 21 1;
#X restore 51 162 pd unvoiced_sound;
#N canvas 430 261 302 409 voiced_sound 0;
#N canvas 388 233 122 156 vocalchords 0;
#X obj 13 100 outlet~;
#X obj 12 19 inlet~;
#X obj 12 57 phasor~;
#X connect 1 0 2 0;
#X connect 2 0 0 0;
#X restore 32 176 pd vocalchords;
#X obj 32 229 *~ 0.65;
#X obj 86 131 hsl 128 15 0 0.5 0 0 empty empty empty -2 -8 0 10 -262144
-1 -1 12700 1;
#N canvas 234 130 309 242 signal 0;
#X obj 28 -24 sig~;
#X obj 28 23 +~;
#X obj 153 10 *~;
#X obj 153 -76 *~ 8;
#X obj 168 -16 line~;
#X obj 153 -102 osc~ 5;
#X obj 29 -67 inlet;
#X obj 255 -48 inlet;
#X obj 28 53 outlet~;
#X msg 168 -40 \$1 100;
#X connect 0 0 1 0;
#X connect 1 0 8 0;
#X connect 2 0 1 1;
#X connect 3 0 2 0;
#X connect 4 0 2 1;
#X connect 5 0 3 0;
#X connect 6 0 0 0;
#X connect 7 0 9 0;
#X connect 9 0 4 0;
#X restore 32 152 pd signal;
#X msg -6 44 110;
#X text -17 26 110 Hz;
#X obj 83 107 r s_vibration;
#X obj 28 7 r s_pulse;
#X obj 91 228 r open_2;
#X obj 38 364 throw~ pulse_sig;
#X obj 96 18 r s_pulseA;
#X obj 40 72 *;
#X floatatom 143 54 5 0 0 0 - - -;
#X obj 37 258 *~;
#N canvas 269 68 517 420 sensa 1;
#X obj 118 61 inlet;
#X msg 211 277 0 100;
#X msg 264 278 1 100;
#X obj 212 226 sel 0 1;
#X obj 237 129 hsl 50 15 0 2.5 0 0 empty empty empty -2 -8 0 10 -262144
-1 -1 1960 1;
#X text 231 146 0;
#X text 281 146 50;
#X text 248 146 25;
#X obj 160 35 loadbang;
#X text 233 111 sensitivity;
#X obj 211 313 line;
#X obj 211 345 outlet;
#X obj 299 128 tgl 15 0 empty empty empty 17 7 0 10 -262144 -1 -1 0
1;
#X floatatom 91 156 5 0 0 0 - - -;
#X msg 159 61 0.5;
#X obj 212 190 > 0.5;
#X obj 306 219 s splitz;
#X connect 0 0 13 0;
#X connect 0 0 15 0;
#X connect 1 0 10 0;
#X connect 2 0 10 0;
#X connect 3 0 1 0;
#X connect 3 1 2 0;
#X connect 4 0 15 1;
#X connect 8 0 14 0;
#X connect 10 0 11 0;
#X connect 14 0 4 0;
#X connect 15 0 3 0;
#X connect 15 0 12 0;
#X connect 15 0 16 0;
#X restore 197 241 pd sensa;
#X floatatom 98 66 5 0 0 0 - - -;
#X obj 185 28 r s_pulseAAA;
#X connect 0 0 1 0;
#X connect 1 0 13 0;
#X connect 2 0 3 1;
#X connect 3 0 0 0;
#X connect 4 0 3 0;
#X connect 6 0 2 0;
#X connect 7 0 12 0;
#X connect 7 0 11 0;
#X connect 10 0 15 0;
#X connect 10 0 11 1;
#X connect 11 0 3 0;
#X connect 13 0 9 0;
#X connect 14 0 13 1;
#X connect 15 0 14 0;
#X restore 52 139 pd voiced_sound;
#X obj 201 61 loadbang;
#X msg 201 85 1;
#X obj 306 140 *~;
#X obj 446 137 *~;
#X msg 461 83 0 100;
#X msg 508 82 1 100;
#X obj 461 112 line~;
#X msg 321 87 0 100;
#X msg 368 86 1 100;
#X obj 321 116 line~;
#X obj 568 35 sel 0 1;
#X obj 582 91 loadbang;
#X obj 573 153 bng 15 250 50 0 empty empty empty 17 7 0 10 -262144
-1 -1;
#X obj 612 148 bng 15 250 50 0 empty empty empty 17 7 0 10 -262144
-1 -1;
#X msg 568 13 \$1;
#X obj 329 52 throw~ aba;
#X obj 568 -9 r splitz;
#X connect 6 0 29 0;
#X connect 6 0 16 0;
#X connect 7 0 17 0;
#X connect 14 0 15 0;
#X connect 15 0 5 0;
#X connect 15 0 10 0;
#X connect 16 0 8 0;
#X connect 17 0 8 0;
#X connect 18 0 20 0;
#X connect 19 0 20 0;
#X connect 20 0 17 1;
#X connect 21 0 23 0;
#X connect 22 0 23 0;
#X connect 23 0 16 1;
#X connect 24 0 21 0;
#X connect 24 0 26 0;
#X connect 24 0 19 0;
#X connect 24 1 22 0;
#X connect 24 1 27 0;
#X connect 24 1 18 0;
#X connect 25 0 19 0;
#X connect 25 0 21 0;
#X connect 28 0 24 0;
#X connect 30 0 28 0;
#X coords 0 -1 1 1 140 70 2 50 52;
