#N canvas 331 244 400 385 10;
#X obj 36 61 inlet~;
#X obj 117 62 inlet;
#X obj 224 214 inlet;
#X obj 163 155 inlet;
#X text 123 44 freq;
#X text 228 194 gain;
#X text 170 135 bw;
#X obj 106 310 outlet~;
#X obj 224 237 rmstodb;
#X obj 224 266 * 0.3;
#X obj 106 283 *~;
#X obj 117 91 sig~;
#X obj 106 236 vcf~;
#X connect 0 0 12 0;
#X connect 1 0 11 0;
#X connect 2 0 8 0;
#X connect 3 0 12 2;
#X connect 8 0 9 0;
#X connect 9 0 10 1;
#X connect 10 0 7 0;
#X connect 11 0 12 1;
#X connect 12 0 10 0;
