#N canvas 279 172 669 472 10;
#X obj -139 -146 catch~ freqCtrl;
#X obj -205 -98 throw~ f1;
#X obj -141 -98 throw~ f2;
#X obj -77 -98 throw~ f3;
#X obj 200 10 cnv 15 150 138 empty empty empty 20 12 0 14 -233017 -66577
0;
#X obj -130 122 /~ 3;
#X obj 207 -127 model.mapVowels;
#X obj -129 199 throw~ voice;
#X obj 200 10 anal.spectrum_~;
#X obj -108 168 throw~ voice_graph;
#X obj 200 -22 catch~ voice_graph;
#N canvas 0 22 450 300 formant1 0;
#X text -123 -156 (gain);
#X msg -68 -115 50;
#X obj -195 -38 model.formant;
#X text -102 -39 f1;
#X obj -195 -185 catch~ f1;
#X text -69 -157 (bw);
#X text -172 -158 (freq);
#X msg -119 -115 0.0003;
#X obj -180 32 outlet~;
#X obj -112 -181 inlet;
#X obj -73 -180 inlet;
#X obj -169 -139 r f1a;
#X connect 1 0 2 2;
#X connect 2 0 8 0;
#X connect 4 0 2 0;
#X connect 7 0 2 3;
#X connect 9 0 7 0;
#X connect 10 0 1 0;
#X connect 11 0 2 1;
#X restore -204 53 pd formant1;
#N canvas 0 22 450 300 formant2 0;
#X text 79 -122 (gain);
#X msg 134 -73 70;
#X obj 6 -18 model.formant;
#X text 96 -18 f2;
#X obj 6 -158 catch~ f2;
#X text 134 -121 (bw);
#X text 27 -121 (freq);
#X msg 81 -71 0.0002;
#X obj 17 33 outlet~;
#X obj 189 -127 inlet;
#X obj 237 -125 inlet;
#X obj 31 -102 r f2a;
#X connect 1 0 2 2;
#X connect 2 0 8 0;
#X connect 4 0 2 0;
#X connect 7 0 2 3;
#X connect 9 0 7 0;
#X connect 10 0 1 0;
#X connect 11 0 2 1;
#X restore -128 54 pd formant2;
#N canvas 0 22 450 300 formant3 0;
#X text 134 -95 (gain);
#X msg 188 -46 70;
#X obj 60 9 model.formant;
#X text 149 9 f3;
#X obj 60 -131 catch~ f3;
#X text 187 -96 (bw);
#X text 81 -93 (freq);
#X msg 135 -44 0.0003;
#X obj 61 60 outlet~;
#X obj 153 -133 inlet;
#X obj 204 -132 inlet;
#X obj 85 -76 r f3a;
#X connect 1 0 2 2;
#X connect 2 0 8 0;
#X connect 4 0 2 0;
#X connect 7 0 2 3;
#X connect 9 0 7 0;
#X connect 10 0 1 0;
#X connect 11 0 2 1;
#X restore -52 53 pd formant3;
#X obj -112 -41 loadbang;
#N canvas 0 22 481 541 pitch_s 0;
#X floatatom 48 95 0 0 0 0 - - -;
#X obj 112 366 *~;
#X obj 296 217 line~;
#X floatatom 296 134 0 0 0 0 - - -;
#X text 315 41 PITCH SHIFTER;
#X obj 296 191 pack 0 200;
#X obj 49 151 exp;
#X floatatom 49 177 6 0 0 0 - - -;
#X obj 49 267 /;
#X obj 176 197 * 0.001;
#X obj 112 392 +~;
#X obj 49 418 cos~;
#X obj 49 445 *~;
#X obj 49 474 +~;
#X obj 218 338 wrap~;
#X obj 281 368 *~;
#X obj 281 401 +~;
#X obj 218 428 cos~;
#X obj 218 457 *~;
#X obj 296 71 loadbang;
#X obj 176 224 t b f;
#X floatatom 49 293 6 0 0 0 - - -;
#X obj 218 311 +~ 0.5;
#X obj 49 366 -~ 0.5;
#X obj 49 392 *~ 0.5;
#X obj 218 367 -~ 0.5;
#X obj 218 400 *~ 0.5;
#X obj 49 204 - 1;
#X obj 49 125 * 0.05776;
#X obj 49 230 * -1;
#X text 83 94 <-- transposition;
#X text 126 107 (halftones);
#X text 112 171 speed;
#X text 111 185 change;
#X text 340 133 <--window (msec);
#X text 84 260 tape head;
#X obj 49 324 phasor~;
#X obj 296 161 max 1;
#X text 85 273 rotation freq;
#X obj 281 430 vd~ \$0-del;
#X obj 49 40 delwrite~ \$0-del 5000;
#X obj 112 418 vd~ \$0-del;
#X obj 49 18 inlet~;
#X msg 296 108 40;
#X obj 267 42 inlet;
#X obj 49 503 outlet~;
#X text 50 552 audio examples G09.pitchshift.pd;
#X connect 0 0 28 0;
#X connect 1 0 10 0;
#X connect 2 0 1 1;
#X connect 2 0 15 1;
#X connect 3 0 37 0;
#X connect 5 0 2 0;
#X connect 6 0 7 0;
#X connect 7 0 27 0;
#X connect 8 0 21 0;
#X connect 9 0 20 0;
#X connect 10 0 41 0;
#X connect 11 0 12 0;
#X connect 12 0 13 0;
#X connect 13 0 45 0;
#X connect 14 0 15 0;
#X connect 14 0 25 0;
#X connect 15 0 16 0;
#X connect 16 0 39 0;
#X connect 17 0 18 0;
#X connect 18 0 13 1;
#X connect 19 0 43 0;
#X connect 20 0 8 0;
#X connect 20 1 8 1;
#X connect 21 0 36 0;
#X connect 22 0 14 0;
#X connect 23 0 24 0;
#X connect 24 0 11 0;
#X connect 25 0 26 0;
#X connect 26 0 17 0;
#X connect 27 0 29 0;
#X connect 28 0 6 0;
#X connect 29 0 8 0;
#X connect 36 0 1 0;
#X connect 36 0 23 0;
#X connect 36 0 22 0;
#X connect 37 0 9 0;
#X connect 37 0 5 0;
#X connect 39 0 18 1;
#X connect 41 0 12 1;
#X connect 42 0 40 0;
#X connect 43 0 3 0;
#X connect 44 0 7 0;
#X restore 44 179 pd pitch_s;
#X connect 0 0 1 0;
#X connect 0 0 2 0;
#X connect 0 0 3 0;
#X connect 5 0 9 0;
#X connect 5 0 7 0;
#X connect 10 0 8 0;
#X connect 11 0 5 0;
#X connect 12 0 5 0;
#X connect 13 0 5 0;
#X connect 14 0 11 0;
#X connect 14 0 11 1;
#X connect 14 0 12 0;
#X connect 14 0 12 1;
#X connect 14 0 13 0;
#X connect 14 0 13 1;
#X coords 0 -1 1 1 150 138 2 200 10;
