#N canvas 397 59 677 309 10;
#X obj 30 -40 map.minMax;
#X obj 224 -40 map.minMax;
#X obj 415 -42 map.minMax;
#X text 38 -109 250 (min);
#X text 101 -109 800 (max);
#X msg 104 -90 1;
#X msg 57 -92 0;
#X text 243 -99 800 (min);
#X text 310 -98 3000 (max);
#X msg 252 -81 0;
#X msg 296 -81 1;
#X msg 443 -79 0;
#X msg 487 -79 1;
#X floatatom 28 26 5 0 0 0 - - -;
#X obj 28 70 + 250;
#X obj 28 47 * 500;
#X floatatom 224 25 5 0 0 0 - - -;
#X obj 224 70 + 800;
#X obj 224 45 * 1500;
#X obj 418 65 + 1650;
#X obj 418 40 * 1525;
#X floatatom 418 15 5 0 0 0 - - -;
#X text 437 -99 1650 (min);
#X obj 27 -141 r f1x;
#X obj 223 -135 r f2y;
#X obj 417 -131 r f3z;
#X obj 501 -122 loadbang;
#X text 506 -99 3050(max);
#X obj 578 -76 loadbang;
#X obj 28 93 s f1a;
#X obj 224 93 s f2a;
#X obj 418 90 s f3a;
#X floatatom 30 -104 5 0 0 0 - - -;
#X connect 0 0 13 0;
#X connect 1 0 16 0;
#X connect 2 0 21 0;
#X connect 5 0 0 2;
#X connect 6 0 0 1;
#X connect 9 0 1 1;
#X connect 10 0 1 2;
#X connect 11 0 2 1;
#X connect 12 0 2 2;
#X connect 13 0 15 0;
#X connect 14 0 29 0;
#X connect 15 0 14 0;
#X connect 16 0 18 0;
#X connect 17 0 30 0;
#X connect 18 0 17 0;
#X connect 19 0 31 0;
#X connect 20 0 19 0;
#X connect 21 0 20 0;
#X connect 23 0 32 0;
#X connect 24 0 1 0;
#X connect 25 0 2 0;
#X connect 26 0 12 0;
#X connect 26 0 10 0;
#X connect 26 0 5 0;
#X connect 28 0 11 0;
#X connect 28 0 9 0;
#X connect 28 0 6 0;
#X connect 32 0 0 0;
