#N canvas 756 52 301 243 10;
#X declare -lib iemgui;
#X declare -lib iemgui;
#X obj -61 41 model.mouth;
#X obj -56 -40 gen.vocal.model;
#X obj 113 -39 import iemgui;
#X obj 119 29 ctrl.sound.volume;
#N canvas 516 48 744 792 fx 1;
#X obj 35 637 throw~ voice_processed;
#X obj 13 14 catch~ voice;
#N canvas 88 191 495 422 reverb 0;
#X msg -28 118 roomsize \$1;
#X msg 57 123 damping \$1;
#X obj 293 254 inlet~;
#X obj 229 388 outlet~;
#X obj 64 17 r r_damping;
#X obj 322 325 freeverb~;
#X obj -6 66 clip 0.65 0.7;
#X obj 59 93 clip 0.35 0.55;
#X connect 0 0 5 0;
#X connect 1 0 5 0;
#X connect 2 0 5 0;
#X connect 2 0 5 1;
#X connect 4 0 6 0;
#X connect 4 0 7 0;
#X connect 5 0 3 0;
#X connect 5 1 3 0;
#X connect 6 0 0 0;
#X connect 7 0 1 0;
#X restore 90 474 pd reverb;
#X obj 55 159 overdrive~;
#X obj 115 136 hsl 128 15 1 12 0 0 empty empty empty -2 -8 0 10 -262144
-1 -1 0 1;
#X text 250 133 min 1;
#X text 307 262 con dei dollar sign;
#X obj 262 265 r env;
#X obj 163 20 r over;
#X obj 166 52 select 0 1;
#X msg 112 88 9 100;
#X obj 112 111 line;
#X msg 162 83 1 100;
#X obj 262 314 line~;
#X msg 262 291 \$1 100;
#X obj 262 339 tgl 15 0 empty empty empty 17 7 0 10 -262144 -1 -1 1
1;
#X obj 351 309 loadbang;
#X obj 173 565 tanh~;
#X obj 391 138 bng 50 250 50 0 empty empty empty 17 7 0 10 -262144
-1 -1;
#X floatatom 644 142 7 0 0 0 - - -;
#X obj 299 71 ibt_pd @winSize 1024 @hopSize 512 @inductionTime 5 @minBPM
81 @maxBPM 160 @outPathName /Users/user/BeatOutput @stateRecovery 0
;
#N canvas 196 567 355 374 synth 0;
#X obj 123 30 inlet;
#X obj 299 33 inlet;
#X obj 168 324 dac~;
#X obj 99 189 *~;
#X obj 171 296 *~ 0.5;
#X obj 123 60 t b b;
#X msg 96 123 0;
#X obj 150 96 ead~ 2 30;
#X obj 130 240 lop~ 14000;
#X obj 51 154 osc~ 4000;
#X connect 0 0 5 0;
#X connect 1 0 4 1;
#X connect 3 0 8 0;
#X connect 4 0 2 0;
#X connect 4 0 2 1;
#X connect 5 0 7 0;
#X connect 5 1 6 0;
#X connect 6 0 9 1;
#X connect 7 0 3 1;
#X connect 8 0 4 0;
#X connect 9 0 3 0;
#X restore 441 272 pd synth;
#X obj 576 199 vsl 15 80 0.1 1.9 0 0 empty empty empty 0 -9 0 10 -262144
-1 -1 0 1;
#X obj 337 25 catch~ aba;
#X obj 219 510 hip~ 32.8;
#X obj 193 538 lop~ 77.32;
#X obj 466 373 phasor~ 80;
#X obj 452 389 *~;
#X obj 547 362 sel 0 1;
#X obj 539 457 line~;
#X obj 477 479 dac~;
#X obj 543 334 tgl 15 0 empty empty empty 17 7 0 10 -262144 -1 -1 0
1;
#X msg 546 419 0 100;
#X msg 581 397 1 100;
#X obj 597 300 metro;
#X obj 605 248 tgl 15 0 empty empty empty 17 7 0 10 -262144 -1 -1 0
92;
#X obj 608 333 tgl 15 0 empty empty empty 17 7 0 10 -262144 -1 -1 0
1;
#X obj 406 455 *~;
#X floatatom 428 431 5 0 0 0 - - -;
#X floatatom 653 265 5 0 0 0 - - -;
#X obj 614 194 expr 60000 / $f1;
#X floatatom 95 413 5 0 0 0 - - -;
#X obj 24 446 *~ 0.2;
#X obj 194 209 r dbz;
#X floatatom 145 288 5 0 0 0 - - -;
#X floatatom 649 236 5 0 0 0 - - -;
#X obj 524 552 expr log($f1)*45;
#X obj 395 218 select;
#X obj 525 593 hsl 128 15 0 127 0 0 empty empty empty -2 -8 0 10 -262144
-1 -1 0 1;
#X obj 299 636 boldAsLove;
#X obj 367 580 e_platereverb;
#X obj 454 688 e_fbdelay;
#X obj 586 697 e_chorusr;
#X connect 1 0 42 0;
#X connect 1 0 3 0;
#X connect 2 0 24 0;
#X connect 3 0 42 0;
#X connect 7 0 14 0;
#X connect 8 0 9 0;
#X connect 9 0 12 0;
#X connect 9 1 10 0;
#X connect 10 0 11 0;
#X connect 11 0 4 0;
#X connect 12 0 11 0;
#X connect 14 0 13 0;
#X connect 16 0 15 0;
#X connect 17 0 0 0;
#X connect 19 0 40 0;
#X connect 20 0 18 0;
#X connect 20 1 19 0;
#X connect 20 1 46 0;
#X connect 22 0 21 1;
#X connect 23 0 20 0;
#X connect 24 0 25 0;
#X connect 25 0 17 0;
#X connect 26 0 27 0;
#X connect 27 0 37 0;
#X connect 28 0 32 0;
#X connect 28 1 33 0;
#X connect 29 0 27 1;
#X connect 31 0 28 0;
#X connect 32 0 29 0;
#X connect 33 0 29 0;
#X connect 34 0 36 0;
#X connect 35 0 34 0;
#X connect 36 0 31 0;
#X connect 37 0 30 0;
#X connect 37 0 30 1;
#X connect 38 0 37 1;
#X connect 40 0 34 1;
#X connect 40 0 45 0;
#X connect 41 0 42 1;
#X connect 42 0 2 0;
#X connect 42 0 0 0;
#X connect 43 0 44 0;
#X connect 46 0 48 0;
#X restore 129 7 pd fx;
#N canvas 378 171 875 417 input_signals 0;
#X floatatom 33 43 5 0 0 0 - - -;
#X floatatom 75 43 5 0 0 0 - - -;
#X floatatom 118 43 5 0 0 0 - - -;
#X text 163 44 0 - 1;
#X text 36 26 f1;
#X text 85 27 f2;
#X text 121 25 f3;
#X obj 620 27 s n_freq;
#X obj 682 30 s n_q;
#X obj 457 227 s fx_hip;
#X obj 397 228 s fx_lop;
#X text 287 18 100-30000;
#X text 361 20 -36 36;
#X text 135 293 on off;
#X text 54 296 0 2;
#X text 646 78 gesture change source;
#X msg 685 200 1;
#X msg 715 200 0;
#X text 691 181 on;
#X text 721 181 off;
#X text 646 2 fissali !!!!;
#X obj 655 101 loadbang;
#X text 568 1 microphone;
#X text 335 -5 granular;
#X text 41 -18 magnitude distance;
#X text 35 5 A - B C-D E-F;
#X text 552 143 gesture: quando il gyro è sotto un certo livello;
#X text 411 197 fissali a mano se servono!!!;
#X connect 21 0 16 0;
#X restore 103 -16 pd input_signals;
#X coords 0 -1 1 1 290 230 2 -70 -45;
