#N canvas 766 261 558 373 10;
#X declare -lib mrpeach;
#X obj 21 312 import mrpeach;
#X msg 73 222 connect localhost 9997;
#X msg 94 244 disconnect;
#X obj 94 197 sel 0 1;
#X obj 22 159 packOSC;
#X msg 173 108 bang;
#X obj 22 5 r led_in_01;
#X obj 52 29 r led_in_02;
#X obj 85 51 r led_in_03;
#X obj 106 76 r led_in_04;
#X obj 94 173 inlet;
#X obj 22 261 udpsend;
#X obj 180 22 r led_t_01;
#X obj 259 22 r led_t_02;
#X obj 337 20 r led_t_03;
#X obj 415 20 r led_t_04;
#X msg 22 134 send /ledData \$1 \$2 \$3 \$4 \$5 \$6 \$7 \$8;
#X obj 22 108 pack f f f f f f f f;
#X connect 1 0 11 0;
#X connect 2 0 11 0;
#X connect 3 0 2 0;
#X connect 3 1 1 0;
#X connect 4 0 11 0;
#X connect 5 0 17 0;
#X connect 6 0 17 0;
#X connect 7 0 5 0;
#X connect 7 0 17 1;
#X connect 8 0 5 0;
#X connect 8 0 17 2;
#X connect 9 0 5 0;
#X connect 9 0 17 3;
#X connect 10 0 3 0;
#X connect 12 0 17 4;
#X connect 12 0 5 0;
#X connect 13 0 17 5;
#X connect 13 0 5 0;
#X connect 14 0 17 6;
#X connect 14 0 5 0;
#X connect 15 0 17 7;
#X connect 15 0 5 0;
#X connect 16 0 4 0;
#X connect 17 0 16 0;
