#N canvas 351 78 168 237 10;
#X obj 37 68 env~;
#X obj 37 90 > 60;
#X obj 37 112 pack 0 100;
#X obj 38 134 vline~;
#X obj 22 163 *~;
#X obj 20 40 inlet~;
#X obj 22 190 outlet~;
#X connect 0 0 1 0;
#X connect 1 0 2 0;
#X connect 2 0 3 0;
#X connect 3 0 4 1;
#X connect 4 0 6 0;
#X connect 5 0 0 0;
#X connect 5 0 4 0;
