#N canvas 501 115 820 563 10;
#N canvas 0 22 153 209 two_vectors 0;
#X obj 18 71 * 100;
#X obj 68 71 * 10;
#X obj 25 111 +;
#X obj 14 17 inlet;
#X obj 67 17 inlet;
#X obj 26 151 outlet;
#X text 12 1 x;
#X text 72 0 y;
#X obj 94 44 t b f;
#X connect 0 0 2 0;
#X connect 1 0 2 1;
#X connect 2 0 5 0;
#X connect 3 0 0 0;
#X connect 4 0 1 0;
#X connect 4 0 8 0;
#X connect 8 0 0 0;
#X connect 8 1 1 0;
#X restore 516 38 pd two_vectors;
#N canvas 0 22 154 159 vector_xy 0;
#X obj 17 79 vector;
#X floatatom 17 41 5 0 0 0 x - -;
#X floatatom 74 41 5 0 0 1 y - -;
#X obj 74 62 t b f;
#X obj 17 104 outlet;
#X obj 17 16 inlet;
#X obj 74 16 inlet;
#X connect 0 0 4 0;
#X connect 1 0 0 0;
#X connect 2 0 3 0;
#X connect 3 0 1 0;
#X connect 3 1 0 1;
#X connect 5 0 1 0;
#X connect 6 0 2 0;
#X restore 23 105 pd vector_xy;
#N canvas 0 22 195 202 if_one_open_another 0;
#X obj 36 133 spigot;
#X obj 84 135 tgl 15 0 empty empty empty 17 7 0 10 -262144 -1 -1 0
1;
#X obj 85 81 sel 0 1;
#X msg 85 107 0;
#X msg 121 107 1;
#X obj 36 103 inlet;
#X obj 36 160 outlet;
#X obj 85 32 inlet;
#X text 26 82 magnitude;
#X text 79 14 accel z;
#X obj 85 56 > 40;
#X connect 0 0 6 0;
#X connect 1 0 0 1;
#X connect 2 0 3 0;
#X connect 2 1 4 0;
#X connect 3 0 1 0;
#X connect 4 0 1 0;
#X connect 5 0 0 0;
#X connect 7 0 10 0;
#X connect 10 0 2 0;
#X restore 115 59 pd if_one_open_another;
#N canvas 86 29 416 426 sensitivity_audio 0;
#X obj 21 39 inlet;
#X msg 114 255 0 100;
#X msg 167 256 1 100;
#X obj 115 204 sel 0 1;
#X obj 140 113 hsl 50 15 -70 70 0 0 empty empty empty -2 -8 0 10 -262144
-1 -1 2502 1;
#X obj 63 13 loadbang;
#X text 136 95 sensitivity;
#X obj 114 291 line;
#X obj 114 323 outlet;
#X msg 62 39 1.5;
#X obj 115 168 > 1.5;
#X obj 202 112 tgl 15 0 empty empty empty 17 7 0 10 -262144 -1 -1 0
1;
#X connect 0 0 10 0;
#X connect 1 0 7 0;
#X connect 2 0 7 0;
#X connect 3 0 1 0;
#X connect 3 1 2 0;
#X connect 4 0 10 1;
#X connect 5 0 9 0;
#X connect 7 0 8 0;
#X connect 9 0 4 0;
#X connect 10 0 3 0;
#X connect 10 0 11 0;
#X coords 0 -1 1 1 100 50 2 130 90;
#X restore 652 17 pd sensitivity_audio;
#X obj 401 255 inlet;
#X msg 401 305 0 100;
#X msg 454 307 1 100;
#X obj 401 276 sel 0 1;
#X obj 401 340 line;
#X obj 401 372 outlet;
#X floatatom 79 147 5 0 0 0 - - -;
#X obj 79 172 split -10 5;
#X obj 120 264 inlet;
#X text 370 234 ramp envelope (reverb);
#X obj 570 237 max 10;
#X obj 570 260 sel 10;
#X msg 570 284 0;
#X obj 570 307 change;
#X obj 619 236 max 10;
#X obj 619 259 sel 10;
#X msg 619 283 0;
#X obj 664 236 max 10;
#X obj 664 259 sel 10;
#X obj 570 351 change;
#X msg 705 285 1;
#X msg 665 285 0;
#X obj 570 373 tgl 15 0 empty empty empty 17 7 0 10 -262144 -1 -1 0
1;
#X msg 570 329 \$1;
#X text 593 374 sel 0 on sel 1 off;
#X text 578 191 y;
#X text 630 191 p;
#X text 677 192 r;
#X text 590 161 reverb freeze;
#X obj 570 397 outlet;
#X obj 569 210 inlet;
#X obj 618 208 inlet;
#X obj 667 208 inlet;
#X msg 77 481 0;
#X obj 73 458 sel 0 1;
#X obj 648 472 &&;
#X obj 263 164 moses 0;
#X floatatom 264 138 5 0 0 0 - - -;
#X floatatom 648 449 5 0 0 0 - - -;
#X floatatom 685 448 5 0 0 0 - - -;
#X obj 648 428 > 20;
#X floatatom 648 494 5 0 0 0 - - -;
#X obj 685 427 < 10;
#X msg 120 315 0;
#X obj 120 289 > 5;
#X msg 279 324 1;
#X floatatom 216 289 5 0 0 0 - - -;
#X text 274 276 acc z è;
#X text 256 57 vibration;
#X obj 280 299 > 90;
#X text 115 145 accel vector;
#X text 68 241 envelope;
#X obj 50 269 >;
#X text 48 290 open;
#X obj 50 351 spigot~ 1;
#X text 18 235 mic;
#X obj 321 502 distance;
#X text 160 395 split mic / noise;
#X obj 74 18 unpack s f f f f f f f f f f f f f f f f;
#X obj 401 93 max;
#X obj 401 69 pipe 500;
#X obj 401 116 pipe 200;
#X obj 401 139 outlet;
#X obj 401 45 inlet;
#X obj 467 98 x pulse;
#X connect 4 0 7 0;
#X connect 5 0 8 0;
#X connect 6 0 8 0;
#X connect 7 0 5 0;
#X connect 7 1 6 0;
#X connect 8 0 9 0;
#X connect 10 0 11 0;
#X connect 11 0 56 0;
#X connect 11 1 48 0;
#X connect 11 1 50 0;
#X connect 12 0 48 0;
#X connect 14 0 15 0;
#X connect 15 0 16 0;
#X connect 15 1 24 0;
#X connect 16 0 17 0;
#X connect 17 0 27 0;
#X connect 18 0 19 0;
#X connect 19 0 20 0;
#X connect 19 1 24 0;
#X connect 20 0 17 0;
#X connect 21 0 22 0;
#X connect 22 0 25 0;
#X connect 22 1 24 0;
#X connect 23 0 26 0;
#X connect 24 0 17 0;
#X connect 25 0 17 0;
#X connect 26 0 33 0;
#X connect 27 0 23 0;
#X connect 34 0 14 0;
#X connect 35 0 18 0;
#X connect 36 0 21 0;
#X connect 39 0 45 0;
#X connect 41 0 40 0;
#X connect 42 0 39 0;
#X connect 43 0 39 1;
#X connect 44 0 42 0;
#X connect 46 0 43 0;
#X connect 47 0 58 1;
#X connect 48 0 47 0;
#X connect 49 0 58 1;
#X connect 53 0 49 0;
#X connect 63 0 65 0;
#X connect 64 0 63 0;
#X connect 65 0 66 0;
#X connect 67 0 63 1;
#X connect 67 0 64 0;
