#N canvas 218 199 952 428 10;
#X obj 16 18 r w_distanceA;
#X obj 102 18 r w_distanceB;
#X obj 192 18 r w_distanceC;
#X obj 285 18 r w_distanceD;
#X obj 383 19 r w_distanceE;
#X obj 475 19 r w_distanceF;
#X obj 22 158 r w_accelXval;
#X obj 117 158 r w_accelYval;
#X obj 223 158 r w_accelZval;
#X obj 366 162 r s_accelMagval;
#X obj 554 161 r w_gyroVal;
#X obj 16 302 r w_yawVal;
#X obj 232 303 r w_pitchVal;
#X obj 110 305 r w_rollVal;
#X obj 804 211 r w_volumeVal;
#X obj 792 15 r w_attackVal;
#X obj 794 93 r w_envelopeVal;
#X obj 794 349 r w_centroidVal;
#X obj 15 65 s;
#X obj 101 61 s;
#X obj 191 57 s;
#X obj 287 57 s;
#X obj 384 56 s;
#X obj 477 58 s;
#X obj 22 206 s;
#X obj 115 202 s;
#X obj 224 198 s;
#X obj 365 194 s;
#X obj 555 188 s;
#X obj 13 353 s;
#X obj 234 353 s;
#X obj 811 255 s;
#X obj 793 55 s;
#X obj 808 133 s;
#X obj 116 350 s;
#X obj 795 394 s;
#X connect 0 0 18 0;
#X connect 1 0 19 0;
#X connect 2 0 20 0;
#X connect 3 0 21 0;
#X connect 4 0 22 0;
#X connect 5 0 23 0;
#X connect 6 0 24 0;
#X connect 7 0 25 0;
#X connect 8 0 26 0;
#X connect 9 0 27 0;
#X connect 10 0 28 0;
#X connect 11 0 29 0;
#X connect 12 0 30 0;
#X connect 13 0 34 0;
#X connect 14 0 31 0;
#X connect 15 0 32 0;
#X connect 16 0 33 0;
#X connect 17 0 35 0;
