#N canvas 206 274 315 226 10;
#X obj 5 23 inlet;
#X obj 6 186 outlet;
#X obj 6 118 map_min-max;
#X msg 55 37;
#X msg 97 36;
#X msg 156 35;
#X msg 199 35;
#X text 72 13 input;
#X text 54 55 low;
#X text 96 56 high;
#X text 156 55 low;
#X text 198 56 high;
#X text 170 12 output;
#X obj 251 35 loadbang;
#X connect 0 0 2 0;
#X connect 2 0 1 0;
#X connect 3 0 2 1;
#X connect 4 0 2 2;
#X connect 5 0 2 3;
#X connect 6 0 2 4;
