#N canvas 118 247 1108 372 10;
#X obj 14 23 r w_distanceA;
#X obj 186 25 r w_distanceB;
#X obj 343 24 r w_distanceC;
#X obj 527 21 r w_distanceD;
#X obj 730 19 r w_distanceE;
#X obj 924 18 r w_distanceF;
#X obj 18 150 r s_accelMagval;
#X obj 251 149 r w_gyroVal;
#X obj 483 148 r w_yawVal;
#X obj 665 147 r w_pitchVal;
#X obj 886 151 r w_rollVal;
#X obj 221 296 r w_volumeVal;
#X obj 18 295 r w_attackVal;
#X obj 444 301 r w_envelopeVal;
#X obj 18 171 s;
#X obj 251 169 s;
#X obj 483 169 s;
#X obj 665 168 s;
#X obj 221 320 s;
#X obj 18 317 s;
#X obj 444 324 s;
#X obj 886 172 s;
#X text 46 6 1;
#X text 216 6 2;
#X text 374 3 3;
#X text 557 3 4;
#X text 761 1 5;
#X text 954 -1 6;
#X text 48 127 7;
#X text 277 129 8;
#X text 501 129 9;
#X text 684 125 10;
#X text 902 129 11;
#X text 36 275 12;
#X text 241 277 13;
#X text 464 273 14;
#X obj 14 54 s dist_bp1;
#X obj 186 48 s dist_bp2;
#X obj 343 46 s dist_bp3;
#X obj 527 44 s dist_bp4;
#X obj 730 42 s dist_bp5;
#X obj 924 40 s dist_bp6;
#X obj 14 76 s dist_env1;
#X obj 187 69 s dist_env2;
#X obj 343 67 s dist_env3;
#X obj 526 65 s dist_env4;
#X obj 730 64 s dist_env5;
#X obj 924 61 s dist_env6;
#X connect 0 0 36 0;
#X connect 0 0 42 0;
#X connect 1 0 37 0;
#X connect 1 0 43 0;
#X connect 2 0 38 0;
#X connect 2 0 44 0;
#X connect 3 0 39 0;
#X connect 3 0 45 0;
#X connect 4 0 40 0;
#X connect 4 0 46 0;
#X connect 5 0 41 0;
#X connect 5 0 47 0;
#X connect 6 0 14 0;
#X connect 7 0 15 0;
#X connect 8 0 16 0;
#X connect 9 0 17 0;
#X connect 10 0 21 0;
#X connect 11 0 18 0;
#X connect 12 0 19 0;
#X connect 13 0 20 0;
