#N canvas 103 208 619 517 10;
#X obj 108 51 inlet;
#X msg 201 267 0 100;
#X msg 254 268 1 100;
#X obj 202 216 sel 0 1;
#X obj 227 119 hsl 50 15 -70 70 0 0 empty empty empty -2 -8 0 10 -262144
-1 -1 2502 1;
#X obj 150 25 loadbang;
#X text 223 101 sensitivity;
#X obj 201 303 line;
#X obj 201 335 outlet;
#X msg 149 51 1.5;
#X obj 202 180 > 1.5;
#X obj 289 118 tgl 15 0 empty empty empty 17 7 0 10 -262144 -1 -1 0
1;
#X connect 0 0 10 0;
#X connect 1 0 7 0;
#X connect 2 0 7 0;
#X connect 3 0 1 0;
#X connect 3 1 2 0;
#X connect 4 0 10 1;
#X connect 5 0 9 0;
#X connect 7 0 8 0;
#X connect 9 0 4 0;
#X connect 10 0 3 0;
#X connect 10 0 11 0;
#X coords 0 -1 1 1 90 50 2 220 100;
