#N canvas 122 142 950 194 10;
#X declare -lib mrpeach;
#X declare -lib mrpeach;
#N canvas 253 157 259 167 sendValuesBack 0;
#X obj -149 47 cnv 15 74 52 empty empty empty 20 12 0 14 -191407 -66577
0;
#X obj -146 62 tgl 15 0 empty empty empty 17 7 0 10 -262144 -1 -1 0
1;
#X obj -150 7 import mrpeach;
#N canvas 12 29 638 262 sendBackOSC_ctrl 0;
#X obj -181 82 packOSC;
#X msg -212 -10 disconnect;
#X obj -180 111 udpsend;
#X msg -285 -40 connect localhost 6448;
#X msg -181 55 send /realValue \$1 \$2 \$3;
#X obj -181 30 r realValueData;
#X obj -213 -108 inlet;
#X obj -213 -84 sel 0 1;
#X obj -135 -10 loadbang;
#X connect 0 0 2 0;
#X connect 1 0 2 0;
#X connect 3 0 2 0;
#X connect 4 0 0 0;
#X connect 5 0 4 0;
#X connect 6 0 7 0;
#X connect 7 0 1 0;
#X connect 7 1 3 0;
#X connect 8 0 1 0;
#X restore -122 137 pd sendBackOSC_ctrl;
#X text -91 119 OSC send back;
#X text -149 31 OSC back;
#X text -128 61 connect;
#X connect 1 0 3 0;
#X coords 0 -1 1 1 75 70 2 -150 30;
#X restore -120 100 pd sendValuesBack;
#N canvas 163 180 959 494 receiveOSCvalues 1;
#X obj -149 135 cnv 15 798 54 empty empty empty 20 12 0 14 -233017
-66577 0;
#X floatatom -143 153 5 0 0 0 - - -;
#X floatatom -106 152 5 0 0 0 - - -;
#X floatatom -69 152 5 0 0 0 - - -;
#X floatatom -29 152 5 0 0 0 - - -;
#X text -140 169 A;
#X text -96 168 B;
#X text -62 168 C;
#X text -23 167 D;
#X floatatom 10 152 5 0 0 0 - - -;
#X floatatom 48 152 5 0 0 0 - - -;
#X text 17 168 E;
#X text 54 167 F;
#X text -147 119 OSC receive values;
#X obj 242 371 s s_accelMagval;
#X obj -142 202 s w_distanceA;
#X obj -107 223 s w_distanceB;
#X obj -69 244 s w_distanceC;
#X obj -27 264 s w_distanceD;
#X obj 10 285 s w_distanceE;
#X obj 49 305 s w_distanceF;
#X obj 163 307 s w_accelXval;
#X obj 211 348 s w_accelZval;
#X obj 468 337 s w_rollVal;
#X obj 452 316 s w_pitchVal;
#X obj 438 296 s w_yawVal;
#X obj 286 265 s w_gyroVal;
#X obj 699 368 s w_centroidVal;
#X obj 644 321 s w_attackVal;
#X obj 668 343 s w_envelopeVal;
#X obj 614 300 s w_volumeVal;
#X obj 182 327 s w_accelYval;
#X floatatom 110 154 5 0 0 0 - - -;
#X floatatom 147 154 5 0 0 0 - - -;
#X floatatom 184 155 5 0 0 0 - - -;
#X floatatom 224 154 5 0 0 0 - - -;
#X floatatom 264 153 5 0 0 0 - - -;
#X floatatom 310 153 5 0 0 0 - - -;
#X text 109 169 X;
#X text 147 170 Y;
#X text 191 171 Z;
#X text 230 169 Mag;
#X text 271 169 Gyro;
#X text 316 168 Yaw;
#X floatatom 355 154 5 0 0 0 - - -;
#X floatatom 395 154 5 0 0 0 - - -;
#X floatatom 465 152 5 0 0 0 - - -;
#X floatatom 511 152 5 0 0 0 - - -;
#X floatatom 557 151 5 0 0 0 - - -;
#X floatatom 603 151 5 0 0 0 - - -;
#X text 351 170 Pitch;
#X text 395 170 Roll;
#X text 472 168 vol;
#X text 517 167 attack;
#X text 564 167 env;
#X text 609 166 centr;
#X text -62 134 distance;
#X text 248 135 IMU;
#X text 510 133 sound analysis;
#X obj 205 464 s realValueData;
#X obj 205 441 pack f f f f f f f f f f f f f f f f f f;
#N canvas 68 22 309 171 receiveOSC_ctrl 0;
#X obj -176 -15 unpackOSC;
#X obj -176 8 routeOSC /oscCustomFeatures;
#X obj -17 31 s oscCustomUnpack;
#X obj -175 84 import mrpeach;
#X obj -176 -36 udpreceive 12000;
#X connect 0 0 1 0;
#X connect 1 1 2 0;
#X connect 4 0 0 0;
#X restore -149 10 pd receiveOSC_ctrl;
#X symbolatom -149 83 10 0 0 0 - - -;
#X obj -149 38 r oscCustomUnpack;
#X obj -148 60 unpack s f f f f f f f f f f f f f f f f f f;
#X msg 454 441 bang;
#X text 250 304 7 8 9 10;
#X text 358 265 11;
#X text 507 294 12 13 14;
#X text 718 293 15 16 17 18;
#X connect 1 0 15 0;
#X connect 2 0 16 0;
#X connect 3 0 17 0;
#X connect 4 0 18 0;
#X connect 9 0 19 0;
#X connect 10 0 20 0;
#X connect 32 0 21 0;
#X connect 33 0 31 0;
#X connect 34 0 22 0;
#X connect 35 0 14 0;
#X connect 36 0 26 0;
#X connect 37 0 25 0;
#X connect 44 0 24 0;
#X connect 45 0 23 0;
#X connect 46 0 30 0;
#X connect 47 0 28 0;
#X connect 48 0 29 0;
#X connect 49 0 27 0;
#X connect 60 0 59 0;
#X connect 63 0 64 0;
#X connect 64 0 62 0;
#X connect 64 1 1 0;
#X connect 64 2 2 0;
#X connect 64 3 3 0;
#X connect 64 4 4 0;
#X connect 64 5 9 0;
#X connect 64 6 10 0;
#X coords 0 -1 1 1 800 70 2 -150 120;
#X restore -45 100 pd receiveOSCvalues;
#X coords 0 -1 1 1 875 70 2 -120 100;
