#N canvas 369 22 685 231 10;
#X declare -lib mrpeach;
#X declare -lib mrpeach;
#N canvas 253 157 259 167 sendValuesBack 0;
#X obj -149 47 cnv 15 74 52 empty empty empty 20 12 0 14 -191407 -66577
0;
#X obj -146 62 tgl 15 0 empty empty empty 17 7 0 10 -262144 -1 -1 0
1;
#X obj -150 7 import mrpeach;
#N canvas 644 143 638 262 sendBackOSC_ctrl 0;
#X obj -181 82 packOSC;
#X msg -212 -10 disconnect;
#X obj -180 111 udpsend;
#X msg -285 -40 connect localhost 6448;
#X obj -181 19 r realValueData;
#X obj -213 -108 inlet;
#X obj -213 -84 sel 0 1;
#X obj -135 -10 loadbang;
#X msg -181 44 send /realValue \$1 \$2 \$3 \$4 \$5 \$6 \$7 \$8 \$9
\$10 \$11 \$12 \$13 \$14 \$15 \$16 \$17 \$18 \$19 \$20;
#X connect 0 0 2 0;
#X connect 1 0 2 0;
#X connect 3 0 2 0;
#X connect 4 0 8 0;
#X connect 5 0 6 0;
#X connect 6 0 1 0;
#X connect 6 1 3 0;
#X connect 7 0 1 0;
#X connect 8 0 0 0;
#X restore -122 137 pd sendBackOSC_ctrl;
#X text -91 119 OSC send back;
#X text -149 31 OSC back;
#X text -128 61 connect;
#X connect 1 0 3 0;
#X coords 0 -1 1 1 75 70 2 -150 30;
#X restore -120 138 pd sendValuesBack;
#N canvas 357 45 704 646 receiveOSCvalues 0;
#X obj -149 136 cnv 15 540 90 empty empty empty 20 12 0 14 -233017
-66577 0;
#X floatatom -75 143 5 0 0 0 - - -;
#X floatatom -38 142 5 0 0 0 - - -;
#X floatatom -1 142 5 0 0 0 - - -;
#X floatatom 39 142 5 0 0 0 - - -;
#X floatatom 78 142 5 0 0 0 - - -;
#X floatatom 116 142 5 0 0 0 - - -;
#X text -144 120 OSC receive values;
#X floatatom 154 142 5 0 0 0 - - -;
#X floatatom 191 142 5 0 0 0 - - -;
#X floatatom 228 143 5 0 0 0 - - -;
#X floatatom 268 142 5 0 0 0 - - -;
#X floatatom 308 141 5 0 0 0 - - -;
#X floatatom 346 142 5 0 0 0 - - -;
#X floatatom -73 186 5 0 0 0 - - -;
#X floatatom -33 186 5 0 0 0 - - -;
#X floatatom 8 186 5 0 0 0 - - -;
#X floatatom 47 188 5 0 0 0 - - -;
#X floatatom 87 188 5 0 0 0 - - -;
#X floatatom 127 189 5 0 0 0 - - -;
#X obj -40 358 s realValueData;
#N canvas 68 22 309 171 receiveOSC_ctrl 0;
#X obj -176 -15 unpackOSC;
#X obj -176 8 routeOSC /oscCustomFeatures;
#X obj -17 31 s oscCustomUnpack;
#X obj -175 84 import mrpeach;
#X obj -176 -36 udpreceive 12000;
#X connect 0 0 1 0;
#X connect 1 1 2 0;
#X connect 4 0 0 0;
#X restore -146 5 pd receiveOSC_ctrl;
#X symbolatom -144 142 10 0 0 0 - - -;
#X obj -146 27 r oscCustomUnpack;
#X msg 239 334 bang;
#X text -72 159 1;
#X text -28 158 2;
#X text 6 158 3;
#X text 45 157 4;
#X text 85 158 5;
#X text 122 160 6;
#X text 161 159 7;
#X text 205 158 8;
#X text 239 158 9;
#X text 278 157 10;
#X text 318 158 11;
#X text 355 157 12;
#X text -64 201 13;
#X text -25 201 14;
#X text 15 202 15;
#X text 56 205 16;
#X text 96 206 17;
#X text 136 207 18;
#X floatatom 163 190 5 0 0 0 - - -;
#X floatatom 201 190 5 0 0 0 - - -;
#X text 170 206 19;
#X text 207 208 20;
#X obj -146 51 unpack s f f f f f f f f f f f f f f f f f f f f;
#X obj -40 335 pack f f f f f f f f f f f f f f f f f f f f;
#X obj -139 446 s pitch_ctrl;
#X obj -104 471 s fund_freq;
#X obj -66 492 s mod_1;
#X obj -24 512 s mod_2;
#X obj 13 533 s mod_3;
#X obj 83 441 s mod_4;
#X obj 127 462 s mod_5;
#X obj 165 482 s mod_6;
#X obj 306 441 s filters_f1;
#X obj 345 462 s filters_f2;
#X obj 387 482 s filters_f3;
#X obj 423 503 s filters_f4;
#X obj -135 543 s filters_f5;
#X obj -99 565 s filters_f6;
#X obj -55 589 s filters_q;
#X obj 160 543 s filters_env1;
#X obj 200 565 s delay_slide;
#X obj 242 588 s delay_ctrl;
#X obj 425 569 s panning_ctrl;
#X obj 463 591 s env_ctrl;
#X text 276 7 for Claudio (Rocchi);
#X connect 1 0 48 0;
#X connect 1 0 49 0;
#X connect 2 0 24 0;
#X connect 2 0 48 1;
#X connect 2 0 50 0;
#X connect 3 0 24 0;
#X connect 3 0 48 2;
#X connect 3 0 51 0;
#X connect 4 0 24 0;
#X connect 4 0 48 3;
#X connect 4 0 52 0;
#X connect 5 0 24 0;
#X connect 5 0 48 4;
#X connect 5 0 53 0;
#X connect 6 0 24 0;
#X connect 6 0 48 5;
#X connect 6 0 54 0;
#X connect 8 0 24 0;
#X connect 8 0 48 6;
#X connect 8 0 55 0;
#X connect 9 0 24 0;
#X connect 9 0 48 7;
#X connect 9 0 56 0;
#X connect 10 0 24 0;
#X connect 10 0 48 8;
#X connect 10 0 57 0;
#X connect 11 0 24 0;
#X connect 11 0 48 9;
#X connect 11 0 58 0;
#X connect 12 0 24 0;
#X connect 12 0 48 10;
#X connect 12 0 59 0;
#X connect 13 0 24 0;
#X connect 13 0 48 11;
#X connect 13 0 60 0;
#X connect 14 0 24 0;
#X connect 14 0 48 12;
#X connect 14 0 61 0;
#X connect 15 0 24 0;
#X connect 15 0 48 13;
#X connect 15 0 62 0;
#X connect 16 0 24 0;
#X connect 16 0 48 14;
#X connect 16 0 63 0;
#X connect 17 0 24 0;
#X connect 17 0 48 15;
#X connect 17 0 64 0;
#X connect 18 0 24 0;
#X connect 18 0 48 16;
#X connect 18 0 65 0;
#X connect 19 0 24 0;
#X connect 19 0 48 17;
#X connect 19 0 66 0;
#X connect 23 0 47 0;
#X connect 24 0 48 0;
#X connect 43 0 24 0;
#X connect 43 0 48 18;
#X connect 43 0 67 0;
#X connect 44 0 24 0;
#X connect 44 0 48 19;
#X connect 44 0 68 0;
#X connect 47 0 22 0;
#X connect 47 1 1 0;
#X connect 47 2 2 0;
#X connect 47 3 3 0;
#X connect 47 4 4 0;
#X connect 47 5 5 0;
#X connect 47 6 6 0;
#X connect 47 7 8 0;
#X connect 47 8 9 0;
#X connect 47 9 10 0;
#X connect 47 10 11 0;
#X connect 47 11 12 0;
#X connect 47 12 13 0;
#X connect 47 13 14 0;
#X connect 47 14 15 0;
#X connect 47 15 16 0;
#X connect 47 16 17 0;
#X connect 47 17 18 0;
#X connect 47 18 19 0;
#X connect 47 19 43 0;
#X connect 47 20 44 0;
#X connect 48 0 20 0;
#X coords 0 -1 1 1 542 108 2 -150 120;
#X restore -45 100 pd receiveOSCvalues;
#X coords 0 -1 1 1 619 108 2 -120 100;
