#N canvas 369 22 685 231 10;
#X declare -lib mrpeach;
#X declare -lib mrpeach;
#N canvas 253 157 259 167 sendValuesBack 0;
#X obj -149 47 cnv 15 74 52 empty empty empty 20 12 0 14 -191407 -66577
0;
#X obj -146 62 tgl 15 0 empty empty empty 17 7 0 10 -262144 -1 -1 0
1;
#X obj -150 7 import mrpeach;
#N canvas 644 143 638 262 sendBackOSC_ctrl 0;
#X obj -181 82 packOSC;
#X msg -212 -10 disconnect;
#X obj -180 111 udpsend;
#X msg -285 -40 connect localhost 6448;
#X obj -181 19 r realValueData;
#X obj -213 -108 inlet;
#X obj -213 -84 sel 0 1;
#X obj -135 -10 loadbang;
#X msg -181 44 send /realValue \$1 \$2 \$3 \$4 \$5 \$6 \$7 \$8 \$9
\$10 \$11 \$12 \$13 \$14 \$15 \$16 \$17 \$18 \$19 \$20 \$21 \$22 \$23
\$24 \$25;
#X connect 0 0 2 0;
#X connect 1 0 2 0;
#X connect 3 0 2 0;
#X connect 4 0 8 0;
#X connect 5 0 6 0;
#X connect 6 0 1 0;
#X connect 6 1 3 0;
#X connect 7 0 1 0;
#X connect 8 0 0 0;
#X restore -122 137 pd sendBackOSC_ctrl;
#X text -91 119 OSC send back;
#X text -149 31 OSC back;
#X text -128 61 connect;
#X connect 1 0 3 0;
#X coords 0 -1 1 1 75 70 2 -150 30;
#X restore -120 138 pd sendValuesBack;
#N canvas 8 52 614 731 receiveOSCvalues 0;
#X obj -149 136 cnv 15 540 90 empty empty empty 20 12 0 14 -233017
-66577 0;
#X floatatom -75 143 5 0 0 0 - - -;
#X floatatom -38 142 5 0 0 0 - - -;
#X floatatom -1 142 5 0 0 0 - - -;
#X floatatom 39 142 5 0 0 0 - - -;
#X floatatom 78 142 5 0 0 0 - - -;
#X floatatom 116 142 5 0 0 0 - - -;
#X text -144 120 OSC receive values;
#X floatatom 154 142 5 0 0 0 - - -;
#X floatatom 191 142 5 0 0 0 - - -;
#X floatatom 228 143 5 0 0 0 - - -;
#X floatatom 268 142 5 0 0 0 - - -;
#X floatatom 308 141 5 0 0 0 - - -;
#X floatatom 346 142 5 0 0 0 - - -;
#X floatatom -145 183 5 0 0 0 - - -;
#X floatatom -105 183 5 0 0 0 - - -;
#X floatatom -64 183 5 0 0 0 - - -;
#X floatatom -25 185 5 0 0 0 - - -;
#X floatatom 15 185 5 0 0 0 - - -;
#X floatatom 55 186 5 0 0 0 - - -;
#X obj -76 385 s realValueData;
#N canvas 68 22 309 171 receiveOSC_ctrl 0;
#X obj -176 -15 unpackOSC;
#X obj -176 8 routeOSC /oscCustomFeatures;
#X obj -17 31 s oscCustomUnpack;
#X obj -175 84 import mrpeach;
#X obj -176 -36 udpreceive 12000;
#X connect 0 0 1 0;
#X connect 1 1 2 0;
#X connect 4 0 0 0;
#X restore -146 5 pd receiveOSC_ctrl;
#X symbolatom -144 142 10 0 0 0 - - -;
#X obj -146 27 r oscCustomUnpack;
#X msg 262 362 bang;
#X obj -146 51 unpack s f f f f f f f f f f f f f f f f f f f f f f
f f f;
#X obj -76 362 pack f f f f f f f f f f f f f f f f f f f f f f f f
f;
#X text 276 7 for Keiji (Haino);
#X text -72 159 1;
#X text -28 158 2;
#X text 6 158 3;
#X text 45 157 4;
#X text 85 158 5;
#X text 122 160 6;
#X text 161 159 7;
#X text 205 158 8;
#X text 239 158 9;
#X text 278 157 10;
#X text 318 158 11;
#X text 355 157 12;
#X obj -75 596 s w_distA;
#X obj -40 617 s w_disteB;
#X obj -2 638 s w_distC;
#X obj 40 658 s w_distD;
#X obj 77 679 s w_distE;
#X obj 116 699 s w_distF;
#X obj 348 655 s w_distFbp;
#X obj 312 634 s w_distEbp;
#X obj 270 614 s w_distDbp;
#X obj 231 593 s w_distCbp;
#X obj 192 571 s w_distBbp;
#X obj 154 552 s w_distAbp;
#X text -136 198 13;
#X text -97 198 14;
#X text -57 199 15;
#X text -16 202 16;
#X text 24 203 17;
#X text 64 204 18;
#X obj -143 562 s gesture_feat_A;
#X obj -103 540 s mic_sound_feat_1;
#X obj -62 516 s sound_feat_1;
#X obj -22 447 s gesture_feat_B;
#X obj 17 468 s gesture_feat_C;
#X obj 59 490 s feat_C_1;
#X floatatom 91 187 5 0 0 0 - - -;
#X floatatom 129 187 5 0 0 0 - - -;
#X floatatom 167 187 5 0 0 0 - - -;
#X floatatom 204 187 5 0 0 0 - - -;
#X floatatom 241 188 5 0 0 0 - - -;
#X floatatom 281 187 5 0 0 0 - - -;
#X floatatom 321 186 5 0 0 0 - - -;
#X text 98 203 19;
#X text 135 205 20;
#X text 174 204 21;
#X text 218 203 22;
#X text 252 203 23;
#X text 291 202 24;
#X text 331 203 25;
#X obj 92 408 s feat_C_2;
#X obj 130 430 s feat_C_4;
#X obj 169 453 s dist_envelope;
#X obj 205 475 s gesture_feat_D;
#X obj 245 506 s feat_D_1;
#X obj 287 527 s feat_D_2;
#X obj 327 553 s gesture_feat_E;
#X connect 1 0 40 0;
#X connect 1 0 26 0;
#X connect 2 0 41 0;
#X connect 2 0 26 1;
#X connect 2 0 24 0;
#X connect 3 0 42 0;
#X connect 3 0 26 2;
#X connect 3 0 24 0;
#X connect 4 0 43 0;
#X connect 4 0 26 3;
#X connect 4 0 24 0;
#X connect 5 0 44 0;
#X connect 5 0 26 4;
#X connect 5 0 24 0;
#X connect 6 0 45 0;
#X connect 6 0 26 5;
#X connect 6 0 24 0;
#X connect 8 0 51 0;
#X connect 8 0 26 6;
#X connect 8 0 24 0;
#X connect 9 0 50 0;
#X connect 9 0 26 7;
#X connect 9 0 24 0;
#X connect 10 0 49 0;
#X connect 10 0 26 8;
#X connect 10 0 24 0;
#X connect 11 0 48 0;
#X connect 11 0 26 9;
#X connect 11 0 24 0;
#X connect 12 0 47 0;
#X connect 12 0 26 10;
#X connect 12 0 24 0;
#X connect 13 0 46 0;
#X connect 13 0 26 11;
#X connect 13 0 24 0;
#X connect 14 0 58 0;
#X connect 14 0 26 12;
#X connect 14 0 24 0;
#X connect 15 0 59 0;
#X connect 15 0 26 13;
#X connect 15 0 24 0;
#X connect 16 0 60 0;
#X connect 16 0 26 14;
#X connect 16 0 24 0;
#X connect 17 0 61 0;
#X connect 17 0 26 15;
#X connect 17 0 24 0;
#X connect 18 0 62 0;
#X connect 18 0 26 16;
#X connect 18 0 24 0;
#X connect 19 0 63 0;
#X connect 19 0 26 17;
#X connect 19 0 24 0;
#X connect 23 0 25 0;
#X connect 24 0 26 0;
#X connect 25 0 22 0;
#X connect 25 1 1 0;
#X connect 25 2 2 0;
#X connect 25 3 3 0;
#X connect 25 4 4 0;
#X connect 25 5 5 0;
#X connect 25 6 6 0;
#X connect 25 7 8 0;
#X connect 25 8 9 0;
#X connect 25 9 10 0;
#X connect 25 10 11 0;
#X connect 25 11 12 0;
#X connect 25 12 13 0;
#X connect 25 13 14 0;
#X connect 25 14 15 0;
#X connect 25 15 16 0;
#X connect 25 16 17 0;
#X connect 25 17 18 0;
#X connect 25 18 19 0;
#X connect 25 19 64 0;
#X connect 25 20 65 0;
#X connect 25 21 66 0;
#X connect 25 22 67 0;
#X connect 25 23 68 0;
#X connect 25 24 69 0;
#X connect 25 25 70 0;
#X connect 26 0 20 0;
#X connect 64 0 78 0;
#X connect 64 0 26 18;
#X connect 64 0 24 0;
#X connect 65 0 79 0;
#X connect 65 0 26 19;
#X connect 65 0 24 0;
#X connect 66 0 80 0;
#X connect 66 0 26 20;
#X connect 66 0 24 0;
#X connect 67 0 81 0;
#X connect 67 0 26 21;
#X connect 67 0 24 0;
#X connect 68 0 82 0;
#X connect 68 0 26 22;
#X connect 68 0 24 0;
#X connect 69 0 83 0;
#X connect 69 0 26 23;
#X connect 69 0 24 0;
#X connect 70 0 84 0;
#X connect 70 0 26 24;
#X connect 70 0 24 0;
#X coords 0 -1 1 1 542 108 2 -150 120;
#X restore -45 100 pd receiveOSCvalues;
#X coords 0 -1 1 1 619 108 2 -120 100;
