#N canvas 170 51 612 301 10;
#X obj 259 207 s brightLed1;
#X obj 298 185 s brightLed2;
#X obj 337 163 s brightLed3;
#X obj 376 146 s brightLed4;
#X obj -15 34 loadbang;
#X msg -14 101 128;
#X msg 3 123 64;
#X msg 20 144 32;
#X obj -14 75 t b b b b;
#X msg 39 168 16;
#X obj 39 193 s led1zero;
#X obj 21 215 s led2zero;
#X obj 4 238 s led3zero;
#X obj -13 262 s led4zero;
#X obj 140 70 cnv 15 80 185 empty empty empty 20 12 0 14 -162280 -66577
0;
#X obj 162 105 vsl 15 60 0 127 0 0 led1val_r brightLed1 empty 0 -9
0 10 -262144 -1 -1 743 1;
#X obj 182 105 vsl 15 60 0 127 0 0 led2val_r brightLed2 empty 0 -9
0 10 -262144 -1 -1 1487 1;
#X obj 183 174 vsl 15 60 0 127 0 0 led4val_r brightLed4 empty 0 -9
0 10 -262144 -1 -1 5900 1;
#X obj 163 174 vsl 15 60 0 127 0 0 led3val_r brightLed3 empty 0 -9
0 10 -262144 -1 -1 2973 1;
#X text 165 237 3;
#X text 186 237 4;
#X text 164 88 1;
#X text 184 87 2;
#X text 166 70 led;
#X obj 204 221 tgl 15 0 led4start empty empty 17 7 0 10 -262144 -1
-1 1 1;
#X obj 143 221 tgl 15 0 led3start empty empty 17 7 0 10 -262144 -1
-1 1 1;
#X obj 201 103 tgl 15 0 led2start empty empty 17 7 0 10 -262144 -1
-1 1 1;
#X obj 143 104 tgl 15 0 led1start empty empty 17 7 0 10 -262144 -1
-1 1 1;
#X text -124 8 initialize all led;
#N canvas 49 316 494 238 manageLed_1_2_3_4 0;
#X obj -14 82 t b f;
#X obj -14 110 *;
#X obj 74 82 t b f;
#X obj 74 113 *;
#X obj -14 134 + 16;
#X obj 75 141 + 32;
#X obj 159 79 t b f;
#X obj 159 107 *;
#X obj 159 134 + 64;
#X obj 258 135 + 128;
#X obj -15 162 outlet;
#X obj 74 164 outlet;
#X obj 161 162 outlet;
#X obj 258 163 outlet;
#N canvas 172 554 317 256 receive_led_data 0;
#X obj -26 2 udpreceive 9997;
#X obj -9 117 outlet;
#X obj 9 138 outlet;
#X obj 25 162 outlet;
#X obj 40 187 outlet;
#X obj -26 31 unpackOSC;
#X symbolatom -27 94 10 0 0 0 - - -;
#X obj -27 65 unpack s f f f f f f f f;
#X obj 62 97 s led1start;
#X obj 79 123 s led2start;
#X obj 113 148 s led3start;
#X obj 147 171 s led4start;
#X floatatom 178 98 5 0 0 0 - - -;
#X floatatom 99 182 5 0 0 0 - - -;
#X connect 0 0 5 0;
#X connect 5 0 7 0;
#X connect 7 0 6 0;
#X connect 7 1 1 0;
#X connect 7 2 2 0;
#X connect 7 3 3 0;
#X connect 7 4 4 0;
#X connect 7 4 13 0;
#X connect 7 5 8 0;
#X connect 7 6 9 0;
#X connect 7 7 10 0;
#X connect 7 8 11 0;
#X connect 7 8 12 0;
#X restore 67 11 pd receive_led_data;
#X obj -51 59 r led1start;
#X obj 38 59 r led2start;
#X obj 128 57 r led3start;
#X obj 224 56 r led4start;
#X obj 89 43 * 100;
#X obj 21 43 * 100;
#X obj 188 36 * 100;
#X floatatom 335 173 5 0 0 0 - - -;
#X obj 317 40 / 127;
#X floatatom 367 70 5 0 0 0 - - -;
#X obj 337 127 *;
#X floatatom 365 149 5 0 0 0 - - -;
#X obj 338 95 t b f;
#X connect 0 0 1 0;
#X connect 0 1 1 1;
#X connect 1 0 4 0;
#X connect 2 0 3 0;
#X connect 2 1 3 1;
#X connect 3 0 5 0;
#X connect 4 0 10 0;
#X connect 5 0 11 0;
#X connect 6 0 7 0;
#X connect 6 1 7 1;
#X connect 7 0 8 0;
#X connect 8 0 12 0;
#X connect 9 0 13 0;
#X connect 9 0 22 0;
#X connect 14 0 20 0;
#X connect 14 1 19 0;
#X connect 14 2 21 0;
#X connect 14 3 23 0;
#X connect 14 3 24 0;
#X connect 15 0 1 0;
#X connect 16 0 3 0;
#X connect 17 0 7 0;
#X connect 18 0 25 0;
#X connect 19 0 2 0;
#X connect 20 0 0 0;
#X connect 21 0 6 0;
#X connect 24 0 27 0;
#X connect 25 0 26 0;
#X connect 25 0 9 0;
#X connect 27 0 25 0;
#X connect 27 1 25 1;
#X restore 259 118 pd manageLed_1_2_3_4;
#X text 258 63 receive from OSC;
#X connect 4 0 8 0;
#X connect 4 0 27 0;
#X connect 4 0 26 0;
#X connect 4 0 25 0;
#X connect 4 0 24 0;
#X connect 5 0 13 0;
#X connect 6 0 12 0;
#X connect 7 0 11 0;
#X connect 8 0 5 0;
#X connect 8 1 6 0;
#X connect 8 2 7 0;
#X connect 8 3 9 0;
#X connect 9 0 10 0;
#X connect 29 0 0 0;
#X connect 29 1 1 0;
#X connect 29 2 2 0;
#X connect 29 3 3 0;
#X coords 0 -1 1 1 80 185 2 140 70;
