#N canvas 369 22 685 231 10;
#X declare -lib mrpeach;
#X declare -lib mrpeach;
#N canvas 253 157 259 167 sendValuesBack 1;
#X obj -149 47 cnv 15 74 52 empty empty empty 20 12 0 14 -191407 -66577
0;
#X obj -146 62 tgl 15 0 empty empty empty 17 7 0 10 -262144 -1 -1 0
1;
#X obj -150 7 import mrpeach;
#N canvas 644 143 638 262 sendBackOSC_ctrl 1;
#X obj -181 82 packOSC;
#X msg -212 -10 disconnect;
#X obj -180 111 udpsend;
#X msg -285 -40 connect localhost 6448;
#X obj -181 19 r realValueData;
#X obj -213 -108 inlet;
#X obj -213 -84 sel 0 1;
#X obj -135 -10 loadbang;
#X msg -181 44 send /realValue \$1 \$2 \$3 \$4 \$5 \$6 \$7 \$8 \$9
\$10 \$11 \$12 \$13;
#X connect 0 0 2 0;
#X connect 1 0 2 0;
#X connect 3 0 2 0;
#X connect 4 0 8 0;
#X connect 5 0 6 0;
#X connect 6 0 1 0;
#X connect 6 1 3 0;
#X connect 7 0 1 0;
#X connect 8 0 0 0;
#X restore -122 137 pd sendBackOSC_ctrl;
#X text -91 119 OSC send back;
#X text -149 31 OSC back;
#X text -128 61 connect;
#X connect 1 0 3 0;
#X coords 0 -1 1 1 75 70 2 -150 30;
#X restore -120 138 pd sendValuesBack;
#N canvas 285 47 552 548 receiveOSCvalues 0;
#X obj -149 136 cnv 15 540 90 empty empty empty 20 12 0 14 -233017
-66577 0;
#X floatatom -75 143 5 0 0 0 - - -;
#X floatatom -38 142 5 0 0 0 - - -;
#X floatatom -1 142 5 0 0 0 - - -;
#X floatatom 39 142 5 0 0 0 - - -;
#X floatatom 78 142 5 0 0 0 - - -;
#X floatatom 116 142 5 0 0 0 - - -;
#X text -144 120 OSC receive values;
#X floatatom 154 142 5 0 0 0 - - -;
#X floatatom 80 183 5 0 0 0 - - -;
#X floatatom 117 184 5 0 0 0 - - -;
#X floatatom 157 183 5 0 0 0 - - -;
#X floatatom 197 182 5 0 0 0 - - -;
#X floatatom 235 183 5 0 0 0 - - -;
#X floatatom 275 185 5 0 0 0 - - -;
#X obj -26 320 s realValueData;
#N canvas 68 22 309 171 receiveOSC_ctrl 0;
#X obj -176 -15 unpackOSC;
#X obj -176 8 routeOSC /oscCustomFeatures;
#X obj -17 31 s oscCustomUnpack;
#X obj -175 84 import mrpeach;
#X obj -176 -36 udpreceive 12000;
#X connect 0 0 1 0;
#X connect 1 1 2 0;
#X connect 4 0 0 0;
#X restore -146 5 pd receiveOSC_ctrl;
#X symbolatom -144 142 10 0 0 0 - - -;
#X obj -146 27 r oscCustomUnpack;
#X msg 165 298 bang;
#X text -72 159 1;
#X text -28 158 2;
#X text 6 158 3;
#X text 45 157 4;
#X text 85 158 5;
#X text 122 160 6;
#X text 161 159 7;
#X text 94 199 8;
#X text 128 199 9;
#X text 167 198 10;
#X text 207 199 11;
#X text 244 198 12;
#X text 284 200 13;
#X text 276 7 for Alvin (Curran);
#X obj -146 51 unpack s f f f f f f f f f f f f f;
#X obj -26 297 pack f f f f f f f f f f f f f;
#X obj -77 399 s f1x;
#X obj -42 420 s f2y;
#X obj -4 441 s f3z;
#X obj 43 391 s r_pulse;
#X obj 80 412 s r_vibration;
#X obj 119 432 s rampNoise;
#X obj 152 456 s windowW;
#X obj 41 461 s transpose;
#X obj 80 483 s over;
#X obj 119 504 s r_damping;
#X obj 199 502 s r_freeze;
#X obj 242 476 s splitter;
#X obj 277 450 s env;
#X connect 1 0 35 0;
#X connect 1 0 36 0;
#X connect 2 0 19 0;
#X connect 2 0 35 1;
#X connect 2 0 37 0;
#X connect 3 0 19 0;
#X connect 3 0 35 2;
#X connect 3 0 38 0;
#X connect 4 0 19 0;
#X connect 4 0 35 3;
#X connect 4 0 39 0;
#X connect 5 0 19 0;
#X connect 5 0 35 4;
#X connect 5 0 40 0;
#X connect 6 0 19 0;
#X connect 6 0 35 5;
#X connect 6 0 41 0;
#X connect 8 0 19 0;
#X connect 8 0 35 6;
#X connect 8 0 42 0;
#X connect 9 0 19 0;
#X connect 9 0 35 7;
#X connect 9 0 43 0;
#X connect 10 0 19 0;
#X connect 10 0 35 8;
#X connect 10 0 44 0;
#X connect 11 0 19 0;
#X connect 11 0 35 9;
#X connect 11 0 45 0;
#X connect 12 0 19 0;
#X connect 12 0 35 10;
#X connect 12 0 46 0;
#X connect 13 0 19 0;
#X connect 13 0 35 11;
#X connect 13 0 47 0;
#X connect 14 0 19 0;
#X connect 14 0 35 12;
#X connect 14 0 48 0;
#X connect 18 0 34 0;
#X connect 19 0 35 0;
#X connect 34 0 17 0;
#X connect 34 1 1 0;
#X connect 34 2 2 0;
#X connect 34 3 3 0;
#X connect 34 4 4 0;
#X connect 34 5 5 0;
#X connect 34 6 6 0;
#X connect 34 7 8 0;
#X connect 34 8 9 0;
#X connect 34 9 10 0;
#X connect 34 10 11 0;
#X connect 34 11 12 0;
#X connect 34 12 13 0;
#X connect 34 13 14 0;
#X connect 35 0 15 0;
#X coords 0 -1 1 1 542 108 2 -150 120;
#X restore -45 100 pd receiveOSCvalues;
#X coords 0 -1 1 1 619 108 2 -120 100;
