#N canvas 139 86 930 654 10;
#X declare -lib mrpeach;
#X obj 78 109 cnv 15 105 80 empty empty empty 20 12 0 14 -162280 -66577
0;
#X obj 38 190 cnv 15 145 110 empty empty empty 20 12 0 14 -128992 -66577
0;
#X floatatom 143 211 5 0 0 0 - - -;
#X floatatom 144 235 5 0 0 0 - - -;
#X floatatom 144 259 5 0 0 0 - - -;
#X text 117 209 Yaw;
#X text 109 234 Pitch;
#X text 111 259 Roll;
#X floatatom 93 126 5 0 0 0 - - -;
#X text 81 126 A;
#X floatatom 95 147 5 0 0 0 - - -;
#X text 81 146 B;
#X floatatom 94 167 5 0 0 0 - - -;
#X text 81 166 C;
#X floatatom 145 127 5 0 0 0 - - -;
#X floatatom 145 147 5 0 0 0 - - -;
#X floatatom 144 167 5 0 0 0 - - -;
#X text 131 126 D;
#X text 131 146 E;
#X text 131 166 F;
#X text 79 108 distance;
#X text 146 191 Imu;
#X obj 394 71 r yaw_filtered;
#X obj 383 96 r pitch_filtered;
#X obj 388 124 r roll_filtered;
#X floatatom 69 278 5 0 0 0 - - -;
#X obj -300 333 r gyro_filtered;
#X obj 38 109 cnv 15 40 80 empty empty empty 20 12 0 14 -191407 -66577
0;
#X obj 50 128 tgl 15 0 start_on_OSC_button empty empty 17 7 0 10 -262144
-1 -1 0 1;
#X obj 39 91 cnv 15 80 16 empty empty empty 20 12 0 14 -262144 -66577
0;
#X text 41 93 OSC;
#X obj -208 -19 r distA_filtered;
#X obj -208 6 r distB_filtered;
#X obj -206 33 r distC_filtered;
#X obj -64 -18 r distD_filtered;
#X obj -64 6 r distE_filtered;
#X obj -64 34 r distF_filtered;
#X floatatom 62 210 5 0 0 0 - - -;
#X text 44 278 Mag;
#X obj -316 221 r accel_magnitude;
#X text 44 146 send;
#X text 42 111 start;
#N canvas 170 45 671 340 oscSendTo 0;
#X obj -29 119 sel 0 1;
#X obj 141 138 gate 2;
#X obj 141 64 sel 0 1;
#X msg 141 87 1;
#X msg 177 87 2;
#X obj 11 29 cnv 15 90 30 empty empty empty 20 12 0 14 -233017 -66577
0;
#X obj 17 36 bng 15 250 50 0 empty empty empty 17 7 0 10 -262144 -1
-1;
#X obj 58 37 bng 15 250 50 0 empty empty empty 17 7 0 10 -262144 -1
-1;
#X text 35 35 on;
#X text 75 35 off;
#X obj 175 208 packOSC;
#X msg 298 284 disconnect;
#X obj 175 298 udpsend;
#X obj 380 283 loadbang;
#X text -24 297 send to Wekinator;
#X obj -29 86 r start_on_OSC_button;
#X obj 142 12 r send_OSC_data_to_W;
#X obj 229 92 r osc_send_data_pack;
#X text 10 9 OSC /send;
#X obj 504 304 import mrpeach;
#X obj 142 38 delay 500;
#X msg 253 234 connect localhost 6448;
#X msg 174 163 send /oscCustomFeatures \$1 \$2 \$3 \$4 \$5 \$6 \$7
\$8 \$9 \$10 \$11 \$12 \$13 \$14 \$15 \$16;
#X connect 0 0 11 0;
#X connect 0 0 7 0;
#X connect 0 1 21 0;
#X connect 1 1 22 0;
#X connect 2 0 3 0;
#X connect 2 1 4 0;
#X connect 3 0 1 0;
#X connect 4 0 1 0;
#X connect 10 0 12 0;
#X connect 11 0 12 0;
#X connect 13 0 11 0;
#X connect 15 0 0 0;
#X connect 15 0 2 0;
#X connect 17 0 1 1;
#X connect 21 0 12 0;
#X connect 22 0 10 0;
#X coords 0 -1 1 1 92 50 2 10 10;
#X restore -119 552 pd oscSendTo;
#X obj 513 212 r attack;
#X obj 483 185 r volume_anal;
#X obj 478 240 r env_follower;
#X obj 38 300 cnv 15 145 52 empty empty empty 20 12 0 14 -162280 -66577
0;
#X floatatom 46 320 5 0 0 0 - - -;
#X floatatom 144 319 5 0 0 0 - - -;
#X floatatom 94 318 5 0 0 0 - - -;
#X text 43 334 Attack;
#X text 139 333 volume;
#X text 86 333 envelope;
#X text 44 301 Sound;
#X msg 265 563 bang;
#X obj 10 589 s osc_send_data_pack;
#X obj 50 167 bng 15 250 50 0 send_OSC_data_to_W empty empty 17 7 0
10 -262144 -1 -1;
#X text -105 8 2;
#X text -103 36 3;
#X text -104 -17 1;
#X text 42 -18 4;
#X text 41 7 5;
#X text 43 35 6;
#X text -207 223 7;
#X text -161 248 8;
#X text -114 283 9;
#X text -205 333 10;
#X text 489 70 11;
#X text 495 97 12;
#X text 496 122 13;
#X text 572 184 14;
#X text 39 165 XXXXXX;
#X text 49 190 Accel;
#X text 46 211 x;
#X floatatom 62 233 5 0 0 0 - - -;
#X text 46 234 y;
#X floatatom 62 254 5 0 0 0 - - -;
#X text 46 255 z;
#X obj -281 247 r accel_y_filtered;
#X obj -232 282 r accel_z_filtered;
#X obj 10 562 pack f f f f f f f f f f f f f f f f;
#X text 569 214 15;
#X text 573 240 16;
#X connect 22 0 2 0;
#X connect 22 0 54 0;
#X connect 22 0 80 10;
#X connect 23 0 3 0;
#X connect 23 0 54 0;
#X connect 23 0 80 11;
#X connect 24 0 4 0;
#X connect 24 0 54 0;
#X connect 24 0 80 12;
#X connect 26 0 25 0;
#X connect 26 0 54 0;
#X connect 26 0 80 9;
#X connect 31 0 8 0;
#X connect 31 0 80 0;
#X connect 32 0 10 0;
#X connect 32 0 54 0;
#X connect 32 0 80 1;
#X connect 33 0 12 0;
#X connect 33 0 54 0;
#X connect 33 0 80 2;
#X connect 34 0 14 0;
#X connect 34 0 54 0;
#X connect 34 0 80 3;
#X connect 35 0 15 0;
#X connect 35 0 54 0;
#X connect 35 0 80 4;
#X connect 36 0 16 0;
#X connect 36 0 54 0;
#X connect 36 0 80 5;
#X connect 39 0 37 0;
#X connect 39 0 54 0;
#X connect 39 0 80 6;
#X connect 43 0 47 0;
#X connect 43 0 54 0;
#X connect 43 0 80 14;
#X connect 44 0 48 0;
#X connect 44 0 54 0;
#X connect 44 0 80 13;
#X connect 45 0 49 0;
#X connect 45 0 54 0;
#X connect 45 0 80 15;
#X connect 54 0 80 0;
#X connect 78 0 74 0;
#X connect 78 0 80 7;
#X connect 78 0 54 0;
#X connect 79 0 76 0;
#X connect 79 0 80 8;
#X connect 79 0 54 0;
#X connect 80 0 55 0;
#X coords 0 -1 1 1 145 260 2 38 93;
