#N canvas 201 150 465 209 10;
#X declare -lib mrpeach;
#X obj 275 134 send_led.back.value;
#X obj -45 166 s led_in_01;
#X obj 33 165 s led_in_02;
#X obj 112 164 s led_in_03;
#X obj 190 164 s led_in_04;
#X obj 64 60 fiddle~;
#X obj 64 11 r~ audio_to_led;
#X obj 64 37 lop~ 8;
#N canvas 0 22 187 254 amplitude_to_led 0;
#X text 66 21 amplitude;
#X obj 22 164 line;
#X obj 25 187 hsl 128 15 0 1 0 0 empty empty empty -2 -8 0 10 -262144
-1 -1 0 1;
#X obj 22 119 / 100;
#X obj 22 72 f;
#X obj 22 96 - 10;
#X obj 22 49 resample 100;
#X obj 22 210 outlet;
#X obj 22 25 inlet;
#X msg 22 141 \$1 335;
#X connect 1 0 2 0;
#X connect 2 0 7 0;
#X connect 3 0 9 0;
#X connect 4 0 5 0;
#X connect 5 0 3 0;
#X connect 6 0 4 0;
#X connect 8 0 6 0;
#X connect 9 0 1 0;
#X restore 103 83 pd amplitude_to_led;
#N canvas 0 22 194 203 attack_to_led 0;
#X obj 38 137 hsl 128 15 0 1 0 0 empty empty empty -2 -8 0 10 -262144
-1 -1 0 1;
#X obj 35 111 line;
#X obj 7 36 tgl 15 0 empty empty empty 17 7 0 10 -262144 -1 -1 0 1
;
#X obj 7 58 select 0 1;
#X msg 35 86 1 1000;
#X msg 86 88 0 1000;
#X obj 7 12 inlet;
#X obj 35 159 outlet;
#X connect 0 0 7 0;
#X connect 1 0 0 0;
#X connect 2 0 3 0;
#X connect 3 0 5 0;
#X connect 3 1 4 0;
#X connect 4 0 1 0;
#X connect 5 0 1 0;
#X connect 6 0 2 0;
#X restore 77 106 pd attack_to_led;
#X obj 77 131 *;
#X obj 271 69 cnv 15 73 52 empty empty empty 20 12 0 14 -233017 -66577
0;
#X obj 275 86 tgl 15 0 empty empty empty 17 7 0 10 -262144 -1 -1 0
1;
#X text 273 51 OSC led;
#X text 294 84 start;
#X connect 5 1 9 0;
#X connect 5 3 8 0;
#X connect 6 0 7 0;
#X connect 7 0 5 0;
#X connect 8 0 10 1;
#X connect 9 0 10 0;
#X connect 10 0 1 0;
#X connect 10 0 2 0;
#X connect 10 0 3 0;
#X connect 10 0 4 0;
#X connect 12 0 0 0;
#X coords 0 -1 1 1 75 72 2 270 50;
