#N canvas 338 231 877 524 10;
#N canvas 2 28 258 288 smooth 0;
#X obj 21 75 line;
#X obj 21 102 vsl 15 128 0.1 402 0 0 empty empty empty 0 -8 0 8 -262144
-1 -1 9731 1;
#X obj 21 24 inlet;
#X obj 21 248 outlet;
#X floatatom 103 247 5 0 0 0 - - -;
#X text 148 247 smooth;
#X msg 21 50 \$1 402;
#X connect 0 0 1 0;
#X connect 1 0 3 0;
#X connect 1 0 4 0;
#X connect 2 0 6 0;
#X connect 6 0 0 0;
#X coords 0 -1 1 1 100 20 2 100 245;
#X restore 26 104 pd smooth;
#N canvas 0 22 338 328 average 0;
#X msg 31 63 clear;
#X obj 107 62 pack 0 0 0 0 0 0 0 0 0 0 0 0;
#X obj 107 90 mean;
#X obj 107 116 vsl 15 128 0 402 0 0 empty empty empty 0 -8 0 8 -262144
-1 -1 0 1;
#X obj 122 29 Bucket 11;
#X obj 122 5 inlet;
#X obj 83 5 inlet;
#X obj 31 37 loadbang;
#X floatatom 160 262 5 0 0 0 - - -;
#X obj 107 261 outlet;
#X text 200 261 avarage;
#X connect 0 0 2 0;
#X connect 1 0 2 0;
#X connect 2 0 3 0;
#X connect 3 0 8 0;
#X connect 3 0 9 0;
#X connect 4 0 1 1;
#X connect 4 1 1 2;
#X connect 4 2 1 3;
#X connect 4 3 1 4;
#X connect 4 4 1 5;
#X connect 4 5 1 6;
#X connect 4 6 1 7;
#X connect 4 7 1 8;
#X connect 4 8 1 9;
#X connect 4 9 1 10;
#X connect 4 10 1 11;
#X connect 5 0 4 0;
#X connect 6 0 1 0;
#X connect 7 0 0 0;
#X coords 0 -1 1 1 100 20 2 158 260;
#X restore 26 128 pd average;
#X obj 27 152 cal.sensitivity;
#X obj 222 244 *;
#N canvas 0 22 450 300 route_2_sig 0;
#X obj 112 134 gate 2;
#X floatatom 112 161 5 0 0 0 - - -;
#X obj 76 81 sel 0 1;
#X msg 76 104 1;
#X msg 112 104 2;
#X obj 76 55 inlet;
#X obj 112 188 outlet;
#X obj 145 103 inlet;
#X floatatom 154 161 5 0 0 0 - - -;
#X obj 154 187 outlet;
#X connect 0 0 1 0;
#X connect 0 1 8 0;
#X connect 1 0 6 0;
#X connect 2 0 3 0;
#X connect 2 1 4 0;
#X connect 3 0 0 0;
#X connect 4 0 0 0;
#X connect 5 0 2 0;
#X connect 7 0 0 1;
#X connect 8 0 9 0;
#X restore 262 149 pd route_2_sig;
#X obj 6 129 tgl 15 0 empty empty empty 17 7 0 10 -4032 -1 -1 0 1;
#X obj 6 106 tgl 15 0 empty empty empty 17 7 0 10 -258113 -1 -1 1 1
;
#N canvas 0 22 450 300 route_2_sig 0;
#X obj 112 134 gate 2;
#X floatatom 112 161 5 0 0 0 - - -;
#X obj 76 81 sel 0 1;
#X msg 76 104 1;
#X msg 112 104 2;
#X obj 76 55 inlet;
#X obj 112 188 outlet;
#X obj 145 103 inlet;
#X floatatom 154 161 5 0 0 0 - - -;
#X obj 154 187 outlet;
#X connect 0 0 1 0;
#X connect 0 1 8 0;
#X connect 1 0 6 0;
#X connect 2 0 3 0;
#X connect 2 1 4 0;
#X connect 3 0 0 0;
#X connect 4 0 0 0;
#X connect 5 0 2 0;
#X connect 7 0 0 1;
#X connect 8 0 9 0;
#X restore 262 117 pd route_2_sig;
#X floatatom 222 278 5 0 0 0 - - -;
#X floatatom 262 279 5 0 0 0 - - -;
#X obj 6 151 tgl 15 0 empty empty empty 17 7 0 10 -4034 -1 -1 0 1;
#N canvas 0 22 450 300 route_2_sig 0;
#X obj 112 134 gate 2;
#X floatatom 112 161 5 0 0 0 - - -;
#X obj 76 81 sel 0 1;
#X msg 76 104 1;
#X msg 112 104 2;
#X obj 76 55 inlet;
#X obj 112 188 outlet;
#X obj 145 103 inlet;
#X floatatom 154 161 5 0 0 0 - - -;
#X obj 154 187 outlet;
#X connect 0 0 1 0;
#X connect 0 1 8 0;
#X connect 1 0 6 0;
#X connect 2 0 3 0;
#X connect 2 1 4 0;
#X connect 3 0 0 0;
#X connect 4 0 0 0;
#X connect 5 0 2 0;
#X connect 7 0 0 1;
#X connect 8 0 9 0;
#X restore 298 210 pd route_2_sig;
#X floatatom 298 239 5 0 0 0 - - -;
#X obj 343 177 f;
#X obj 379 176 f;
#X floatatom 220 363 5 0 0 0 - - -;
#X text 257 363 value;
#X obj 221 430 outlet;
#X obj -99 56 inlet;
#X obj -59 56 inlet;
#X obj -21 56 inlet;
#X text 20 55 global ctrl;
#X obj 379 42 inlet;
#X connect 0 0 17 0;
#X connect 2 0 3 1;
#X connect 3 0 8 0;
#X connect 4 0 9 0;
#X connect 4 1 13 0;
#X connect 5 0 4 0;
#X connect 6 0 7 0;
#X connect 7 0 4 1;
#X connect 7 1 14 0;
#X connect 8 0 15 0;
#X connect 9 0 15 0;
#X connect 10 0 11 0;
#X connect 11 0 12 0;
#X connect 11 1 3 0;
#X connect 12 0 9 0;
#X connect 13 0 11 1;
#X connect 14 0 11 1;
#X connect 18 0 6 0;
#X connect 19 0 5 0;
#X connect 20 0 10 0;
#X connect 22 0 0 0;
#X coords 0 -1 1 1 130 130 2 2 100;
