#N canvas 418 152 291 258 10;
#N canvas 2 28 258 288 smooth 0;
#X obj 21 75 line;
#X obj 21 102 vsl 15 128 -70 70 0 0 empty empty empty 0 -8 0 8 -262144
-1 -1 0 1;
#X obj 21 24 inlet;
#X obj 21 248 outlet;
#X floatatom 103 247 5 0 0 0 - - -;
#X text 148 247 smooth;
#X msg 21 50 \$1 70;
#X connect 0 0 1 0;
#X connect 1 0 3 0;
#X connect 1 0 4 0;
#X connect 2 0 6 0;
#X connect 6 0 0 0;
#X coords 0 -1 1 1 100 20 2 100 245;
#X restore 27 104 pd smooth;
#N canvas 0 22 338 328 average 0;
#X msg 31 63 clear;
#X obj 107 62 pack 0 0 0 0 0 0 0 0 0 0 0 0;
#X obj 107 90 mean;
#X obj 107 116 vsl 15 128 0 402 0 0 empty empty empty 0 -8 0 8 -262144
-1 -1 0 1;
#X obj 122 29 Bucket 11;
#X obj 122 5 inlet;
#X obj 83 5 inlet;
#X obj 31 37 loadbang;
#X floatatom 160 262 5 0 0 0 - - -;
#X obj 107 261 outlet;
#X text 200 261 avarage;
#X connect 0 0 2 0;
#X connect 1 0 2 0;
#X connect 2 0 3 0;
#X connect 3 0 8 0;
#X connect 3 0 9 0;
#X connect 4 0 1 1;
#X connect 4 1 1 2;
#X connect 4 2 1 3;
#X connect 4 3 1 4;
#X connect 4 4 1 5;
#X connect 4 5 1 6;
#X connect 4 6 1 7;
#X connect 4 7 1 8;
#X connect 4 8 1 9;
#X connect 4 9 1 10;
#X connect 4 10 1 11;
#X connect 5 0 4 0;
#X connect 6 0 1 0;
#X connect 7 0 0 0;
#X coords 0 -1 1 1 100 20 2 158 260;
#X restore 26 130 pd average;
#X obj 6 129 tgl 15 0 empty empty empty 17 7 0 10 -4032 -1 -1 0 1;
#X obj 6 106 tgl 15 0 empty empty empty 17 7 0 10 -258113 -1 -1 1 1
;
#X obj 6 151 tgl 15 0 empty empty empty 17 7 0 10 -4034 -1 -1 0 1;
#X obj 24 202 outlet;
#X obj -99 56 inlet;
#X obj -59 56 inlet;
#X obj -21 56 inlet;
#X text 20 55 global ctrl;
#X obj 117 49 inlet;
#X connect 0 0 5 0;
#X connect 6 0 3 0;
#X connect 7 0 2 0;
#X connect 8 0 4 0;
#X connect 10 0 0 0;
#X coords 0 -1 1 1 130 80 2 2 100;
