#N canvas 385 221 285 342 10;
#X obj 15 218 t a b;
#X obj 15 247 symbol;
#X obj 69 246 getdir;
#X obj 15 272 pack s s;
#X msg 15 297 \; pd open \$1 \$2;
#X text 104 116 nome pacth da aprire;
#X msg 15 116 symbol xxxxxx;
#X obj 11 10 cnv 15 170 90 empty empty empty 20 12 0 14 -233017 -66577
0;
#X obj 16 16 bng 15 250 50 0 empty empty empty 17 7 0 10 -262144 -1
-1;
#X text 36 14 open 'that' composition;
#X obj 16 36 bng 15 250 50 0 empty empty empty 17 7 0 10 -262144 -1
-1;
#X text 33 34 open 'that' composition;
#X obj 17 56 bng 15 250 50 0 empty empty empty 17 7 0 10 -262144 -1
-1;
#X text 34 54 open 'that' composition;
#X obj 17 77 bng 15 250 50 0 empty empty empty 17 7 0 10 -262144 -1
-1;
#X text 34 75 open 'that' composition;
#X text 121 139 nome pacth da aprire;
#X msg 32 139 symbol xxxxxx;
#X text 131 163 nome pacth da aprire;
#X msg 42 163 symbol xxxxxx;
#X text 146 187 nome pacth da aprire;
#X msg 57 187 symbol xxxxxx;
#X connect 0 0 1 0;
#X connect 0 1 2 0;
#X connect 1 0 3 0;
#X connect 2 0 3 1;
#X connect 3 0 4 0;
#X connect 6 0 0 0;
#X connect 8 0 6 0;
#X connect 10 0 17 0;
#X connect 12 0 19 0;
#X connect 14 0 21 0;
#X connect 17 0 0 0;
#X connect 19 0 0 0;
#X connect 21 0 0 0;
#X coords 0 -1 1 1 172 92 2 10 9;
