#N canvas 605 110 450 300 10;
#X floatatom 116 73 5 0 0 0 - - -;
#X obj 116 99 - 100;
#X obj 74 125 timer;
#X obj 74 100 t b b;
#X floatatom 37 125 5 0 0 0 - - -;
#X obj 116 48 env~;
#X obj 224 116 max;
#X floatatom 241 143 5 0 0 0 - - -;
#X obj 252 116 - 0.05;
#X text 115 213 rms db;
#X obj 116 196 outlet;
#X obj 224 194 outlet;
#X text 222 211 peak db;
#X obj 116 23 inlet~;
#X connect 0 0 1 0;
#X connect 1 0 3 0;
#X connect 1 0 6 0;
#X connect 1 0 10 0;
#X connect 2 0 4 0;
#X connect 3 0 2 0;
#X connect 3 1 2 1;
#X connect 5 0 0 0;
#X connect 6 0 7 0;
#X connect 6 0 8 0;
#X connect 6 0 11 0;
#X connect 8 0 6 1;
#X connect 13 0 5 0;
