#N canvas 0 22 303 207 10;
#X obj 19 101 vector;
#X obj 72 101 vector;
#X obj 126 100 vector;
#X obj 17 47 inlet;
#X obj 17 153 outlet;
#X obj 98 46 inlet;
#X obj 174 46 inlet;
#X obj 59 46 inlet;
#X obj 136 46 inlet;
#X obj 215 46 inlet;
#X obj 74 152 outlet;
#X obj 126 150 outlet;
#X text 25 24 x;
#X text 71 24 y;
#X connect 0 0 4 0;
#X connect 1 0 10 0;
#X connect 2 0 11 0;
#X connect 3 0 0 0;
#X connect 5 0 1 0;
#X connect 6 0 2 0;
#X connect 7 0 0 1;
#X connect 8 0 1 1;
#X connect 9 0 2 1;
