#N canvas 448 284 191 123 10;
#X text 7 6 SCULPTON compositions;
#N canvas 280 494 843 193 open_patch_1 0;
#X obj 193 67 t a b;
#X obj 193 96 symbol;
#X obj 247 95 getdir;
#X obj 193 121 pack s s;
#X msg 193 146 \; pd open \$1 \$2;
#X obj 9 19 bng 20 250 50 0 empty empty empty 17 7 0 10 -128992 -1
-1;
#X text 35 21 for Keiji (Haino);
#X text 212 19 for Keiji (Haino);
#X obj 9 49 bng 20 250 50 0 empty empty empty 17 7 0 10 -258113 -1
-1;
#X text 33 51 for Alvin (Curran);
#X obj 9 79 bng 20 250 50 0 empty empty empty 17 7 0 10 -66577 -1 -1
;
#X text 35 81 for Claudio (Rocchi);
#X obj 422 69 t a b;
#X obj 422 98 symbol;
#X obj 476 97 getdir;
#X obj 422 123 pack s s;
#X msg 422 148 \; pd open \$1 \$2;
#X text 463 19 for Alvin (Curran);
#X obj 651 66 t a b;
#X obj 651 95 symbol;
#X obj 705 94 getdir;
#X obj 651 120 pack s s;
#X msg 651 145 \; pd open \$1 \$2;
#X text 666 17 for Claudio (Rocchi);
#X msg 193 40 symbol comp.sculpton_forK.pd;
#X msg 422 42 symbol comp.sculpton_forAl.pd;
#X msg 651 39 symbol comp.sculpton_forCr.pd;
#X connect 0 0 1 0;
#X connect 0 1 2 0;
#X connect 1 0 3 0;
#X connect 2 0 3 1;
#X connect 3 0 4 0;
#X connect 5 0 24 0;
#X connect 8 0 25 0;
#X connect 10 0 26 0;
#X connect 12 0 13 0;
#X connect 12 1 14 0;
#X connect 13 0 15 0;
#X connect 14 0 15 1;
#X connect 15 0 16 0;
#X connect 18 0 19 0;
#X connect 18 1 20 0;
#X connect 19 0 21 0;
#X connect 20 0 21 1;
#X connect 21 0 22 0;
#X connect 24 0 0 0;
#X connect 25 0 12 0;
#X connect 26 0 18 0;
#X coords 0 -1 1 1 170 90 2 5 14;
#X restore 7 27 pd open_patch_1;
