#N canvas 734 280 250 336 10;
#X declare -lib mrpeach;
#X obj 21 312 import mrpeach;
#X obj 22 261 udpsend;
#X msg 73 222 connect localhost 9997;
#X msg 94 244 disconnect;
#X obj 94 197 sel 0 1;
#X obj 22 159 packOSC;
#X msg 22 135 send /ledReceiveData \$1 \$2 \$3 \$4;
#X obj 22 108 pack f f f f;
#X msg 106 108 bang;
#X obj 22 5 r led_in_01;
#X obj 52 29 r led_in_02;
#X obj 85 51 r led_in_03;
#X obj 106 76 r led_in_04;
#X obj 94 173 inlet;
#X connect 2 0 1 0;
#X connect 3 0 1 0;
#X connect 4 0 3 0;
#X connect 4 1 2 0;
#X connect 5 0 1 0;
#X connect 6 0 5 0;
#X connect 7 0 6 0;
#X connect 8 0 7 0;
#X connect 9 0 7 0;
#X connect 10 0 7 1;
#X connect 10 0 8 0;
#X connect 11 0 8 0;
#X connect 11 0 7 2;
#X connect 12 0 8 0;
#X connect 12 0 7 3;
#X connect 13 0 4 0;
