#N canvas 40 36 1237 753 10;
#N canvas 52 164 891 565 accel_XYZ_shake 0;
#X obj 45 163 abs;
#X obj 45 273 sel 1;
#X obj 45 133 -;
#X obj 45 103 t a a;
#X obj 45 333 spigot 1;
#X obj 129 493 change;
#X obj 437 238 unpack f f f;
#X msg 65 363 1 0 0;
#X obj 437 398 t a;
#X obj 97 273 t a a;
#X obj 175 163 abs;
#X obj 175 273 sel 1;
#X obj 175 133 -;
#X obj 175 103 t a a;
#X obj 175 333 spigot 1;
#X obj 259 493 change;
#X obj 227 273 t a a;
#X msg 195 363 0 1 0;
#X obj 305 163 abs;
#X obj 305 273 sel 1;
#X obj 305 133 -;
#X obj 305 103 t a a;
#X obj 305 333 spigot 1;
#X obj 389 493 change;
#X obj 357 273 t a a;
#X msg 325 363 0 0 1;
#X obj 176 436 t b b;
#X msg 208 466 0;
#X msg 143 299 1;
#X text 380 61 Author: Enrique Erne;
#X text 379 41 Version: 2008-09-21;
#X obj 129 523 outlet;
#X obj 259 523 outlet;
#X obj 389 523 outlet;
#X text 90 234 sensitivity;
#X text 74 123 dif2last;
#X obj 45 403 delay 400;
#X obj 175 403 delay 400;
#X obj 305 403 delay 400;
#X text 48 423 timeout;
#X obj 45 233 > 1.5;
#X obj 175 233 > 1.5;
#X obj 305 233 > 1.5;
#X obj 45 73 unpack f f f;
#X obj 418 134 inlet;
#X obj 418 157 route sensitivity timeout;
#X obj 399 365 t a;
#X text 379 81 Inspired by Roman Haefeli's Amenshake;
#X obj 417 176 cnv 15 180 10 empty empty empty 20 12 0 14 -258113 -66577
0;
#X text 557 184 UNTESTED;
#X text 487 300 rjXYZshake 0.1 alpha written by enrique erne. inspired
by roman haefeli's amenshake. gives 0 or 1 for each axis.;
#X text 485 343 2008.10.08 initial release \, port from TheWhiteRoom
\, eerne;
#X obj -3 23 inlet;
#X connect 0 0 40 0;
#X connect 1 0 4 0;
#X connect 2 0 0 0;
#X connect 3 0 2 1;
#X connect 3 1 2 0;
#X connect 4 0 7 0;
#X connect 4 0 36 0;
#X connect 5 0 31 0;
#X connect 6 0 9 0;
#X connect 6 1 16 0;
#X connect 6 2 24 0;
#X connect 7 0 8 0;
#X connect 8 0 6 0;
#X connect 9 0 4 1;
#X connect 9 1 5 0;
#X connect 10 0 41 0;
#X connect 11 0 14 0;
#X connect 12 0 10 0;
#X connect 13 0 12 1;
#X connect 13 1 12 0;
#X connect 14 0 17 0;
#X connect 14 0 37 0;
#X connect 15 0 32 0;
#X connect 16 0 14 1;
#X connect 16 1 15 0;
#X connect 17 0 8 0;
#X connect 18 0 42 0;
#X connect 19 0 22 0;
#X connect 20 0 18 0;
#X connect 21 0 20 1;
#X connect 21 1 20 0;
#X connect 22 0 25 0;
#X connect 22 0 38 0;
#X connect 23 0 33 0;
#X connect 24 0 22 1;
#X connect 24 1 23 0;
#X connect 25 0 8 0;
#X connect 26 0 28 0;
#X connect 26 1 27 0;
#X connect 27 0 23 0;
#X connect 27 0 15 0;
#X connect 27 0 5 0;
#X connect 28 0 4 1;
#X connect 28 0 14 1;
#X connect 28 0 22 1;
#X connect 36 0 26 0;
#X connect 37 0 26 0;
#X connect 38 0 26 0;
#X connect 40 0 1 0;
#X connect 41 0 11 0;
#X connect 42 0 19 0;
#X connect 43 0 3 0;
#X connect 43 1 13 0;
#X connect 43 2 21 0;
#X connect 44 0 45 0;
#X connect 45 0 42 1;
#X connect 45 0 41 1;
#X connect 45 0 40 1;
#X connect 45 1 46 0;
#X connect 46 0 36 1;
#X connect 46 0 37 1;
#X connect 46 0 38 1;
#X connect 52 0 43 0;
#X restore 189 120 pd accel_XYZ_shake;
#X msg 12 40 sensitivity \$1;
#X obj 12 15 hradio 15 1 0 8 empty rjXYZ-sensitiv-r empty 0 -8 0 10
-262144 -1 -1 3;
#X obj 144 15 hradio 15 1 0 8 empty rjXYZ-timeout-r empty 0 -8 0 10
-262144 -1 -1 2;
#X msg 187 41 timeout \$1;
#X obj 144 41 * 100;
#X msg 332 17 \; rjXYZ-sensitiv-r 1 \; rjXYZ-timeout-r 3;
#X obj 275 42 loadbang;
#X text 577 29 accel sensitivity;
#X obj 26 169 m_accel_magnitude;
#X obj 26 147 tgl 15 0 empty empty empty 17 7 0 10 -262144 -1 -1 0
1;
#X floatatom 26 197 5 0 0 0 - - -;
#X text 160 167 rjlib;
#X obj 28 245 tgl 15 0 empty empty empty 17 7 0 10 -262144 -1 -1 0
1;
#X floatatom 28 295 5 0 0 0 - - -;
#X obj 28 268 m_accel_pitch;
#X obj 215 250 tgl 15 0 empty empty empty 17 7 0 10 -262144 -1 -1 0
1;
#X floatatom 215 300 5 0 0 0 - - -;
#X obj 215 273 m_accel_roll;
#N canvas 499 22 633 642 sensitivity_accel 0;
#X obj 14 440 outlet~;
#X obj 122 -26 inlet;
#X obj 55 385 *~;
#X obj 119 351 line~;
#X msg 87 294 0 100;
#X msg 144 295 1 100;
#X obj 118 130 tgl 15 0 empty empty empty 17 7 0 10 -262144 -1 -1 0
1;
#X obj 91 180 > 20;
#X obj 92 243 sel 0 1;
#X obj 142 130 hsl 128 15 0 50 0 0 empty empty empty -2 -8 0 10 -262144
-1 -1 5080 1;
#X text 136 147 0;
#X text 265 146 50;
#X text 198 148 25;
#X obj 299 29 loadbang;
#X msg 292 60 20;
#X text 131 110 Adjust how sensitive it is;
#X obj -147 -53 inlet~;
#X connect 1 0 7 0;
#X connect 2 0 0 0;
#X connect 3 0 2 1;
#X connect 4 0 3 0;
#X connect 5 0 3 0;
#X connect 7 0 6 0;
#X connect 7 0 8 0;
#X connect 8 0 4 0;
#X connect 8 1 5 0;
#X connect 9 0 7 1;
#X connect 13 0 14 0;
#X connect 14 0 9 0;
#X connect 16 0 2 0;
#X restore 786 24 pd sensitivity_accel;
#X floatatom 612 205 5 0 0 0 - - -;
#X obj 612 236 s roll;
#X floatatom 680 203 5 0 0 0 - - -;
#X obj 680 235 s pitch;
#X obj 612 170 - 45.5;
#X obj 680 169 expr ($f1-45.5)*-1;
#X text 726 204 Pitch angle;
#X obj 615 519 *~ 0.5;
#X obj 683 331 r pitch;
#X floatatom 682 518 5 0 0 0 - - -;
#X obj 682 474 * -1;
#X obj 682 371 clip -7 7;
#X obj 682 496 + 0.5;
#X obj 682 391 / 15;
#X obj 682 436 line;
#X obj 681 412 pack f 100;
#X obj 682 351 - 15;
#X obj 911 329 r pitch;
#X msg 843 352 1;
#X msg 854 464 1;
#X obj 910 410 select 1;
#X msg 870 352 0;
#X obj 910 432 delay 10000;
#X obj 910 388 > 40;
#X text 950 384 Threshold Angle;
#X obj 911 368 * 0;
#X obj 841 329 select 0 1;
#X msg 823 464 8;
#X text 813 491 to contro an effect;
#X obj 836 614 f;
#X obj 867 614 + 1;
#X obj 836 635 mod 100;
#N canvas 0 22 450 300 (subpatch) 0;
#X array array1 100 float 0;
#X coords 0 50 99 -50 200 140 1;
#X restore 936 563 graph;
#X obj 750 682 tabwrite array1;
#X obj 834 589 metro 100;
#X obj 750 568 r pitch;
#X obj 835 567 loadbang;
#X text 958 706 Pitch angle over 10 seconds;
#X obj 772 594 abs;
#X obj 773 614 <= 1;
#X obj 773 636 tgl 30 0 empty empty empty 17 7 0 12 -203904 -4160 -1
0 1;
#X floatatom 139 96 5 0 0 0 - - -;
#X floatatom 228 172 5 0 0 0 - - -;
#X floatatom 308 168 5 0 0 0 - - -;
#X floatatom 383 172 5 0 0 0 - - -;
#X connect 0 0 62 0;
#X connect 0 1 63 0;
#X connect 0 2 64 0;
#X connect 1 0 0 1;
#X connect 2 0 1 0;
#X connect 3 0 5 0;
#X connect 5 0 4 0;
#X connect 5 0 0 1;
#X connect 7 0 6 0;
#X connect 9 0 11 0;
#X connect 10 0 9 0;
#X connect 13 0 15 0;
#X connect 15 0 14 0;
#X connect 16 0 18 0;
#X connect 18 0 17 0;
#X connect 20 0 21 0;
#X connect 22 0 23 0;
#X connect 24 0 20 0;
#X connect 25 0 22 0;
#X connect 28 0 36 0;
#X connect 30 0 32 0;
#X connect 31 0 33 0;
#X connect 32 0 27 1;
#X connect 32 0 29 0;
#X connect 33 0 35 0;
#X connect 34 0 30 0;
#X connect 35 0 34 0;
#X connect 36 0 31 0;
#X connect 37 0 45 0;
#X connect 38 0 45 1;
#X connect 40 0 47 0;
#X connect 40 0 41 0;
#X connect 40 0 42 0;
#X connect 41 0 45 1;
#X connect 42 0 38 0;
#X connect 42 0 39 0;
#X connect 43 0 40 0;
#X connect 45 0 43 0;
#X connect 46 0 41 0;
#X connect 46 1 38 0;
#X connect 49 0 50 0;
#X connect 49 0 51 0;
#X connect 50 0 49 1;
#X connect 51 0 53 1;
#X connect 54 0 49 0;
#X connect 55 0 53 0;
#X connect 55 0 58 0;
#X connect 56 0 54 0;
#X connect 58 0 59 0;
#X connect 59 0 60 0;
#X connect 61 0 0 0;
